<svg width="122" height="128" viewBox="0 0 122 128" fill="none" xmlns="http://www.w3.org/2000/svg">
<ellipse cx="61" cy="64" rx="61" ry="64" fill="#8BBF38"/>
<path d="M40.8813 90V39.6H64.4973C70.5453 39.6 75.1533 40.8 78.3213 43.2C81.4893 45.552 83.0733 48.72 83.0733 52.704C83.0733 55.392 82.4493 57.696 81.2013 59.616C79.9533 61.488 78.2733 62.952 76.1613 64.008C74.0973 65.016 71.8413 65.52 69.3933 65.52L70.6893 62.928C73.5213 62.928 76.0653 63.456 78.3213 64.512C80.5773 65.52 82.3533 67.008 83.6493 68.976C84.9933 70.944 85.6653 73.392 85.6653 76.32C85.6653 80.64 84.0093 84 80.6973 86.4C77.3853 88.8 72.4653 90 65.9373 90H40.8813ZM50.2413 82.656H65.3613C68.8653 82.656 71.5533 82.08 73.4253 80.928C75.2973 79.776 76.2333 77.928 76.2333 75.384C76.2333 72.888 75.2973 71.064 73.4253 69.912C71.5533 68.712 68.8653 68.112 65.3613 68.112H49.5213V60.84H63.4893C66.7533 60.84 69.2493 60.264 70.9773 59.112C72.7533 57.96 73.6413 56.232 73.6413 53.928C73.6413 51.576 72.7533 49.824 70.9773 48.672C69.2493 47.52 66.7533 46.944 63.4893 46.944H50.2413V82.656Z" fill="white"/>
</svg>
