<svg xmlns="http://www.w3.org/2000/svg" xmlns:xlink="http://www.w3.org/1999/xlink" viewBox="0 0 617.63 395.26"><defs><style>.cls-1{fill:#f4f4f4;}.cls-1,.cls-11,.cls-14,.cls-15,.cls-16,.cls-17{fill-rule:evenodd;}.cls-2{fill:url(#linear-gradient);}.cls-17,.cls-3{fill:#87c141;}.cls-4{fill:#d8d8d8;}.cls-5{fill:url(#linear-gradient-2);}.cls-6{fill:url(#linear-gradient-3);}.cls-7{fill:url(#linear-gradient-4);}.cls-8{fill:#fff;}.cls-9{fill:#ecbe1d;}.cls-10{fill:url(#linear-gradient-5);}.cls-11{fill:#fe5f41;}.cls-12{fill:#d7e3ff;}.cls-13{fill:#19243d;}.cls-14{fill:url(#linear-gradient-6);}.cls-15{fill:#ff9b6f;}.cls-16{fill:#e59368;}</style><linearGradient id="linear-gradient" x1="1081.12" y1="483" x2="1224.1" y2="483" gradientUnits="userSpaceOnUse"><stop offset="0" stop-color="#0fad43"/><stop offset="1" stop-color="#006b2c"/></linearGradient><linearGradient id="linear-gradient-2" x1="958.53" y1="419.14" x2="1060.71" y2="419.14" xlink:href="#linear-gradient"/><linearGradient id="linear-gradient-3" x1="958.57" y1="480.43" x2="1060.66" y2="480.43" xlink:href="#linear-gradient"/><linearGradient id="linear-gradient-4" x1="958.5" y1="541.75" x2="1060.73" y2="541.75" xlink:href="#linear-gradient"/><linearGradient id="linear-gradient-5" x1="182.68" y1="1051.85" x2="182.68" y2="1050.85" gradientTransform="matrix(0, -116.08, 116.67, 0, -121701.49, 21702.63)" gradientUnits="userSpaceOnUse"><stop offset="0" stop-color="#fff"/><stop offset="1" stop-color="#e5e9f3"/></linearGradient><linearGradient id="linear-gradient-6" x1="181" y1="1051.43" x2="181" y2="1050.43" gradientTransform="matrix(-5.08, 145.39, 176.35, 6.16, -183578.26, -32140.92)" gradientUnits="userSpaceOnUse"><stop offset="0" stop-color="#ffc698"/><stop offset="1" stop-color="#ff945f"/></linearGradient></defs><g id="Layer_1" data-name="Layer 1"><g id="Negative:-Restaurant-not-found-prebuild"><g id="Negative:-Restaurant-not-found"><path id="Path-47" class="cls-1" d="M698.94,493C637.28,605,715,747,912.49,748s423.31-32.27,377.39-148.6-218.4-.64-311.18-93.43S760.61,381,698.94,493Z" transform="translate(-678.27 -352.75)"/><path id="Path-48" class="cls-1" d="M1095.42,424.72c22.88,54.33,154.35,76.18,174.41,40.13s-40.92-41.76-75.44-91.08S1072.54,370.4,1095.42,424.72Z" transform="translate(-678.27 -352.75)"/></g></g><path class="cls-2" d="M1224.1,523.86h-143q0-40.86,0-81.71h142.95Z" transform="translate(-678.27 -352.75)"/><path class="cls-3" d="M1081.13,442.15q0,40.85,0,81.71,0,38.11,0,76.23c0,4.54-.89,5.45-5.34,5.45-3.83,0-7.65-.06-11.48,0-2.59.06-3.65-1.11-3.62-3.65.06-4.68-.06-9.36,0-14,0-2-.43-2.81-2.62-2.8q-48.49.09-97,0c-2.2,0-2.67.83-2.62,2.81.12,4.46,0,8.93,0,13.39,0,2.9-1.41,4.28-4.3,4.27-4.14,0-8.29-.07-12.44,0-2.53,0-3.8-1-3.69-3.57,0-.85,0-1.7,0-2.55q0-101.6,0-203.18h20.43q0,22.92,0,45.84v76.64c0,14.23,0,28.47-.06,42.7,0,2.4.5,3.31,3.14,3.3q48-.13,95.93,0c2.65,0,3.17-.9,3.15-3.3-.1-14.23-.06-28.47-.07-42.7V442.11q0-22.92,0-45.84h20.38q0,12.71,0,25.41Z" transform="translate(-678.27 -352.75)"/><path class="cls-4" d="M958.53,396.27H938.1a15,15,0,0,0-2.22-.08c-2.28.24-3-.8-2.9-3,.12-4.78.15-9.57,0-14.35-.09-2.47,1.09-3.14,3.19-3.12H1244c5.11,0,5.63.52,5.64,5.54v9.57c0,4.92-.24,5.17-5.09,5.42h-20.43c-1.38,0-2.75-.1-4.13-.1H1085.23c-1.38,0-2.76.07-4.14.1h-20.38q-29.13,0-58.25-.1C987.81,396.17,973.17,396.24,958.53,396.27Z" transform="translate(-678.27 -352.75)"/><path class="cls-3" d="M1224.12,396.27h20.43q0,101.57,0,203.13c0,5.59-.56,6.14-6.24,6.14H1229c-4.69,0-4.94-.24-4.94-4.83V523.86q0-40.86,0-81.71V421.68Z" transform="translate(-678.27 -352.75)"/><path class="cls-3" d="M1224.08,421.68v20.47H1081.13V421.68Z" transform="translate(-678.27 -352.75)"/><path class="cls-5" d="M958.53,396.27c14.64,0,29.28-.1,43.93-.1q29.12,0,58.25.1,0,22.92,0,45.84H958.57Q958.55,419.19,958.53,396.27Z" transform="translate(-678.27 -352.75)"/><path class="cls-6" d="M958.57,503.39V457.47h102.09v45.92Z" transform="translate(-678.27 -352.75)"/><path class="cls-7" d="M1060.66,518.75c0,14.23,0,28.47.07,42.7,0,2.4-.5,3.31-3.15,3.3q-48-.13-95.93,0c-2.64,0-3.16-.9-3.14-3.3.1-14.23.06-28.47.06-42.7Z" transform="translate(-678.27 -352.75)"/><path class="cls-8" d="M1224.08,421.68H1081.13q0-12.71,0-25.41c1.38,0,2.76-.1,4.14-.1H1220c1.38,0,2.75.07,4.13.1Q1224.11,409,1224.08,421.68Z" transform="translate(-678.27 -352.75)"/><path class="cls-3" d="M1060.66,457.47H958.57V442.11h102.09Z" transform="translate(-678.27 -352.75)"/><path class="cls-3" d="M1060.66,518.75H958.57V503.39h102.09Z" transform="translate(-678.27 -352.75)"/></g><g id="Layer_3" data-name="Layer 3"><rect class="cls-4" x="437.96" y="108.79" width="78.9" height="3.21"/><circle class="cls-4" cx="291.95" cy="63.7" r="6.68"/></g><g id="Layer_2" data-name="Layer 2"><g id="Group-4"><g id="Group-26"><g id="Group-3"><ellipse class="cls-9" cx="963.53" cy="505.61" rx="69.5" ry="68.5" transform="translate(-452.5 952.69) rotate(-75)"/><ellipse class="cls-8" cx="959.53" cy="496.61" rx="69.5" ry="68.5" transform="translate(-446.77 942.16) rotate(-75)"/><g id="Mask"><ellipse class="cls-10" cx="960.13" cy="497.76" rx="58.34" ry="58.04" transform="translate(-447.44 943.59) rotate(-75)"/></g><polygon class="cls-11" points="310.06 163.57 292.95 145.23 311.3 128.12 299.95 115.95 281.61 133.06 264.5 114.72 252.34 126.06 269.44 144.41 251.1 161.51 262.44 173.68 280.79 156.57 297.89 174.92 310.06 163.57"/></g><g id="Group-25"><rect class="cls-12" x="880.7" y="569.7" width="49.56" height="14.05" rx="2" transform="translate(-784.73 582.43) rotate(-52)"/><rect class="cls-13" x="793.07" y="619.3" width="142" height="21.08" rx="5" transform="translate(-842.5 570.21) rotate(-52)"/></g></g><path id="Path-88" class="cls-14" d="M749.45,660.81,810,613.59l1.56-1.19,31.7-23.6a35,35,0,0,1,30.15-5.69L886,586.55h0l34.45-8.86a6.59,6.59,0,0,1,8,4.75,5.67,5.67,0,0,1,.18,1,13.28,13.28,0,0,1-5.55,12.12l-10.36,7.33h0a11.63,11.63,0,0,1,2,19.71l-6.33,4.84h0A10,10,0,0,1,909,644l-9.18,6.77h0a13.23,13.23,0,0,1-7.26,14.49l-1.36.65a52.73,52.73,0,0,1-22.37,5.19l-45.27.41h0l-41.28,46.68Z" transform="translate(-678.27 -352.75)"/><path id="Path-95" class="cls-15" d="M863.55,595l-10.27,5.46,3.07-5.29a14,14,0,0,1,10.87-6.92l18.23-1.63h0Z" transform="translate(-678.27 -352.75)"/><path id="Path-91" class="cls-16" d="M913.05,602.59l-17.92,9.06a60.08,60.08,0,0,0,10.35-2.94A16.89,16.89,0,0,0,913.05,602.59Z" transform="translate(-678.27 -352.75)"/><path class="cls-16" d="M910.05,626.59l-17.92,9.06a60.08,60.08,0,0,0,10.35-2.94A16.89,16.89,0,0,0,910.05,626.59Z" transform="translate(-678.27 -352.75)"/><path class="cls-16" d="M901.05,649.59l-17.92,9.06a60.08,60.08,0,0,0,10.35-2.94A16.89,16.89,0,0,0,901.05,649.59Z" transform="translate(-678.27 -352.75)"/><path class="cls-17" d="M720,677.17l53.94-38.11q34.11,24.15,35.11,54.1l-15.69,30q-24-8.48-37.47-16.9T720,677.17Z" transform="translate(-678.27 -352.75)"/></g></g></svg>