<svg width="122" height="128" viewBox="0 0 122 128" fill="none" xmlns="http://www.w3.org/2000/svg">
<ellipse cx="61" cy="64" rx="61" ry="64" fill="#8BBF38"/>
<path d="M65.4398 90.72C61.5998 90.72 58.0238 90.096 54.7118 88.848C51.4478 87.552 48.5918 85.752 46.1438 83.448C43.7438 81.096 41.8718 78.336 40.5278 75.168C39.1838 72 38.5118 68.544 38.5118 64.8C38.5118 61.056 39.1838 57.6 40.5278 54.432C41.8718 51.264 43.7678 48.528 46.2158 46.224C48.6638 43.872 51.5198 42.072 54.7838 40.824C58.0478 39.528 61.6238 38.88 65.5118 38.88C69.6398 38.88 73.4078 39.6 76.8158 41.04C80.2238 42.432 83.1038 44.52 85.4558 47.304L79.4078 52.992C77.5838 51.024 75.5438 49.56 73.2878 48.6C71.0318 47.592 68.5838 47.088 65.9438 47.088C63.3038 47.088 60.8798 47.52 58.6718 48.384C56.5118 49.248 54.6158 50.472 52.9838 52.056C51.3998 53.64 50.1518 55.512 49.2398 57.672C48.3758 59.832 47.9438 62.208 47.9438 64.8C47.9438 67.392 48.3758 69.768 49.2398 71.928C50.1518 74.088 51.3998 75.96 52.9838 77.544C54.6158 79.128 56.5118 80.352 58.6718 81.216C60.8798 82.08 63.3038 82.512 65.9438 82.512C68.5838 82.512 71.0318 82.032 73.2878 81.072C75.5438 80.064 77.5838 78.552 79.4078 76.536L85.4558 82.296C83.1038 85.032 80.2238 87.12 76.8158 88.56C73.4078 90 69.6158 90.72 65.4398 90.72Z" fill="white"/>
</svg>
