<svg width="22" height="24" viewBox="0 0 22 24" fill="none" xmlns="http://www.w3.org/2000/svg">
<path d="M10.8 14.4C10.46 14.4 10.1752 14.2848 9.9456 14.0544C9.7152 13.8248 9.6 13.54 9.6 13.2C9.6 12.86 9.7152 12.5748 9.9456 12.3444C10.1752 12.1148 10.46 12 10.8 12C11.14 12 11.4252 12.1148 11.6556 12.3444C11.8852 12.5748 12 12.86 12 13.2C12 13.54 11.8852 13.8248 11.6556 14.0544C11.4252 14.2848 11.14 14.4 10.8 14.4ZM6 14.4C5.66 14.4 5.3748 14.2848 5.1444 14.0544C4.9148 13.8248 4.8 13.54 4.8 13.2C4.8 12.86 4.9148 12.5748 5.1444 12.3444C5.3748 12.1148 5.66 12 6 12C6.34 12 6.6252 12.1148 6.8556 12.3444C7.0852 12.5748 7.2 12.86 7.2 13.2C7.2 13.54 7.0852 13.8248 6.8556 14.0544C6.6252 14.2848 6.34 14.4 6 14.4ZM15.6 14.4C15.26 14.4 14.9752 14.2848 14.7456 14.0544C14.5152 13.8248 14.4 13.54 14.4 13.2C14.4 12.86 14.5152 12.5748 14.7456 12.3444C14.9752 12.1148 15.26 12 15.6 12C15.94 12 16.2248 12.1148 16.4544 12.3444C16.6848 12.5748 16.8 12.86 16.8 13.2C16.8 13.54 16.6848 13.8248 16.4544 14.0544C16.2248 14.2848 15.94 14.4 15.6 14.4ZM10.8 19.2C10.46 19.2 10.1752 19.0848 9.9456 18.8544C9.7152 18.6248 9.6 18.34 9.6 18C9.6 17.66 9.7152 17.3752 9.9456 17.1456C10.1752 16.9152 10.46 16.8 10.8 16.8C11.14 16.8 11.4252 16.9152 11.6556 17.1456C11.8852 17.3752 12 17.66 12 18C12 18.34 11.8852 18.6248 11.6556 18.8544C11.4252 19.0848 11.14 19.2 10.8 19.2ZM6 19.2C5.66 19.2 5.3748 19.0848 5.1444 18.8544C4.9148 18.6248 4.8 18.34 4.8 18C4.8 17.66 4.9148 17.3752 5.1444 17.1456C5.3748 16.9152 5.66 16.8 6 16.8C6.34 16.8 6.6252 16.9152 6.8556 17.1456C7.0852 17.3752 7.2 17.66 7.2 18C7.2 18.34 7.0852 18.6248 6.8556 18.8544C6.6252 19.0848 6.34 19.2 6 19.2ZM15.6 19.2C15.26 19.2 14.9752 19.0848 14.7456 18.8544C14.5152 18.6248 14.4 18.34 14.4 18C14.4 17.66 14.5152 17.3752 14.7456 17.1456C14.9752 16.9152 15.26 16.8 15.6 16.8C15.94 16.8 16.2248 16.9152 16.4544 17.1456C16.6848 17.3752 16.8 17.66 16.8 18C16.8 18.34 16.6848 18.6248 16.4544 18.8544C16.2248 19.0848 15.94 19.2 15.6 19.2ZM2.4 24C1.74 24 1.1748 23.7652 0.7044 23.2956C0.2348 22.8252 0 22.26 0 21.6V4.8C0 4.14 0.2348 3.5752 0.7044 3.1056C1.1748 2.6352 1.74 2.4 2.4 2.4H3.6V0H6V2.4H15.6V0H18V2.4H19.2C19.86 2.4 20.4252 2.6352 20.8956 3.1056C21.3652 3.5752 21.6 4.14 21.6 4.8V21.6C21.6 22.26 21.3652 22.8252 20.8956 23.2956C20.4252 23.7652 19.86 24 19.2 24H2.4ZM2.4 21.6H19.2V9.6H2.4V21.6Z"/>
</svg>
