<svg width="15" height="24" viewBox="0 0 15 24" fill="none" xmlns="http://www.w3.org/2000/svg">
<path d="M11.6731 23.9997C11.35 23.9985 11.0304 23.932 10.7336 23.8042C10.4368 23.6764 10.1688 23.4899 9.94587 23.256L0.685768 13.6601C0.246209 13.2116 0 12.6087 0 11.9808C0 11.3528 0.246209 10.7499 0.685768 10.3015L10.2817 0.705523C10.5054 0.481845 10.7709 0.304414 11.0632 0.18336C11.3554 0.0623063 11.6687 4.71367e-09 11.985 0C12.3013 -4.71366e-09 12.6146 0.0623063 12.9068 0.18336C13.1991 0.304414 13.4646 0.481845 13.6883 0.705523C13.912 0.929201 14.0894 1.19475 14.2105 1.487C14.3315 1.77925 14.3938 2.09248 14.3938 2.40881C14.3938 2.72513 14.3315 3.03837 14.2105 3.33062C14.0894 3.62287 13.912 3.88841 13.6883 4.11209L5.77162 12.0048L13.4004 19.9214C13.8472 20.3709 14.098 20.9789 14.098 21.6127C14.098 22.2465 13.8472 22.8545 13.4004 23.304C13.1734 23.5292 12.9037 23.7068 12.607 23.8263C12.3104 23.9458 11.9929 24.0047 11.6731 23.9997Z" fill="white"/>
</svg>
