<svg width="122" height="128" viewBox="0 0 122 128" fill="none" xmlns="http://www.w3.org/2000/svg">
<ellipse cx="61" cy="64" rx="61" ry="64" fill="#8BBF38"/>
<path d="M38.5258 90V39.6H60.5578C66.0298 39.6 70.8298 40.656 74.9578 42.768C79.0858 44.88 82.3018 47.808 84.6058 51.552C86.9098 55.296 88.0618 59.712 88.0618 64.8C88.0618 69.84 86.9098 74.256 84.6058 78.048C82.3018 81.792 79.0858 84.72 74.9578 86.832C70.8298 88.944 66.0298 90 60.5578 90H38.5258ZM47.8858 82.08H60.1258C63.9178 82.08 67.1818 81.36 69.9178 79.92C72.7018 78.48 74.8378 76.464 76.3258 73.872C77.8618 71.28 78.6298 68.256 78.6298 64.8C78.6298 61.296 77.8618 58.272 76.3258 55.728C74.8378 53.136 72.7018 51.12 69.9178 49.68C67.1818 48.24 63.9178 47.52 60.1258 47.52H47.8858V82.08Z" fill="white"/>
</svg>
