<svg width="60" height="52" viewBox="0 0 60 52" fill="none" xmlns="http://www.w3.org/2000/svg">
<g opacity="0.2">
<path d="M31.343 0H28.6571C23.4592 0 19.2454 4.30119 19.2454 9.60697V42.393C19.2454 47.6988 23.4592 52 28.6571 52H31.343C36.541 52 40.7548 47.6988 40.7548 42.393V9.60697C40.7548 4.30119 36.541 0 31.343 0Z" fill="white"/>
<path d="M55.2942 38.1333H51.121C48.5221 38.1333 46.4152 40.2839 46.4152 42.9368V47.1965C46.4152 49.8494 48.5221 52 51.121 52H55.2942C57.8932 52 60.0001 49.8494 60.0001 47.1965V42.9368C60.0001 40.2839 57.8932 38.1333 55.2942 38.1333Z" fill="white"/>
<path d="M8.87906 38.1333H4.70588C2.10689 38.1333 0 40.2839 0 42.9368V47.1965C0 49.8494 2.10689 52 4.70588 52H8.87906C11.478 52 13.5849 49.8494 13.5849 47.1965V42.9368C13.5849 40.2839 11.478 38.1333 8.87906 38.1333Z" fill="white"/>
<path d="M55.2942 0H51.121C48.5221 0 46.4152 2.15059 46.4152 4.80348V9.06321C46.4152 11.7161 48.5221 13.8667 51.121 13.8667H55.2942C57.8932 13.8667 60.0001 11.7161 60.0001 9.06321V4.80348C60.0001 2.15059 57.8932 0 55.2942 0Z" fill="white"/>
<path d="M8.87906 0H4.70588C2.10689 0 0 2.15059 0 4.80348V9.06321C0 11.7161 2.10689 13.8667 4.70588 13.8667H8.87906C11.478 13.8667 13.5849 11.7161 13.5849 9.06321V4.80348C13.5849 2.15059 11.478 0 8.87906 0Z" fill="white"/>
<path d="M55.2942 19.6445H51.121C48.5221 19.6445 46.4152 21.7951 46.4152 24.448V28.7077C46.4152 31.3606 48.5221 33.5112 51.121 33.5112H55.2942C57.8932 33.5112 60.0001 31.3606 60.0001 28.7077V24.448C60.0001 21.7951 57.8932 19.6445 55.2942 19.6445Z" fill="white"/>
<path d="M8.87906 19.6445H4.70588C2.10689 19.6445 0 21.7951 0 24.448V28.7077C0 31.3606 2.10689 33.5112 4.70588 33.5112H8.87906C11.478 33.5112 13.5849 31.3606 13.5849 28.7077V24.448C13.5849 21.7951 11.478 19.6445 8.87906 19.6445Z" fill="white"/>
</g>
</svg>
