<svg width="43" height="46" viewBox="0 0 43 46" fill="none" xmlns="http://www.w3.org/2000/svg">
<path d="M41.6999 22.857C41.6999 34.6604 32.6096 44.1427 21.4999 44.1427C10.3903 44.1427 1.29993 34.6604 1.29993 22.857C1.29993 11.0536 10.3903 1.57129 21.4999 1.57129C32.6096 1.57129 41.6999 11.0536 41.6999 22.857Z" fill="white" stroke="#076535" stroke-width="2"/>
<rect x="11.4666" y="31.3647" width="1.4" height="10.6811" transform="rotate(-180 11.4666 31.3647)" fill="#076535"/>
<rect x="31.0667" y="14.5" width="2.8" height="10.6811" fill="#076535"/>
<rect x="33.8667" y="22.3706" width="2.81081" height="10.7333" transform="rotate(90 33.8667 22.3706)" fill="#076535"/>
<rect x="24.5333" y="31.3647" width="1.4" height="6.18378" transform="rotate(-180 24.5333 31.3647)" fill="#076535"/>
<rect x="20.8" y="31.3647" width="1.4" height="10.6811" transform="rotate(-180 20.8 31.3647)" fill="#076535"/>
<rect x="33.8667" y="31.3647" width="1.4" height="6.18378" transform="rotate(-180 33.8667 31.3647)" fill="#076535"/>
<rect x="9.1333" y="17.873" width="12.6" height="2.81081" fill="#076535"/>
</svg>
