<svg width="26" height="25" viewBox="0 0 26 25" fill="none" xmlns="http://www.w3.org/2000/svg">
<path d="M2 24L9.23888 23.9752L25.0388 8.22277C25.6588 7.59862 26 6.76972 26 5.88798C26 5.00624 25.6588 4.17733 25.0388 3.55318L22.4372 0.934373C21.197 -0.313934 19.0334 -0.30733 17.8032 0.92942L2 16.6852V24V24ZM20.1177 3.26917L22.7242 5.88302L20.1046 8.49522L17.503 5.87807L20.1177 3.26917ZM5.28071 18.0623L15.172 8.19966L17.7736 10.8185L7.88394 20.6778L5.28071 20.686V18.0623Z" fill="white"/>
<path d="M2.66667 25H21.3333C22.804 25 24 23.804 24 22.3333V10.776L21.3333 13.4427V22.3333H6.87733C6.84267 22.3333 6.80667 22.3467 6.772 22.3467C6.728 22.3467 6.684 22.3347 6.63867 22.3333H2.66667V3.66667H11.796L14.4627 1H2.66667C1.196 1 0 2.196 0 3.66667V22.3333C0 23.804 1.196 25 2.66667 25Z" fill="white"/>
</svg>
