<svg width="122" height="128" viewBox="0 0 122 128" fill="none" xmlns="http://www.w3.org/2000/svg">
<ellipse cx="61" cy="64" rx="61" ry="64" fill="#8BBF38"/>
<path d="M64.0034 90.72C60.0674 90.72 56.4434 90.096 53.1314 88.848C49.8674 87.552 47.0114 85.752 44.5634 83.448C42.1154 81.096 40.2194 78.336 38.8754 75.168C37.5314 72 36.8594 68.544 36.8594 64.8C36.8594 61.056 37.5314 57.6 38.8754 54.432C40.2194 51.264 42.1154 48.528 44.5634 46.224C47.0594 43.872 49.9634 42.072 53.2754 40.824C56.5874 39.528 60.2114 38.88 64.1474 38.88C68.4194 38.88 72.2594 39.576 75.6674 40.968C79.1234 42.36 82.0274 44.4 84.3794 47.088L78.4754 52.848C76.5074 50.88 74.3714 49.44 72.0674 48.528C69.8114 47.568 67.3154 47.088 64.5794 47.088C61.9394 47.088 59.4914 47.52 57.2354 48.384C54.9794 49.248 53.0354 50.472 51.4034 52.056C49.7714 53.64 48.4994 55.512 47.5874 57.672C46.7234 59.832 46.2914 62.208 46.2914 64.8C46.2914 67.344 46.7234 69.696 47.5874 71.856C48.4994 74.016 49.7714 75.912 51.4034 77.544C53.0354 79.128 54.9554 80.352 57.1634 81.216C59.3714 82.08 61.8194 82.512 64.5074 82.512C67.0034 82.512 69.4034 82.128 71.7074 81.36C74.0594 80.544 76.2914 79.2 78.4034 77.328L83.7314 84.312C81.0914 86.424 78.0194 88.032 74.5154 89.136C71.0594 90.192 67.5554 90.72 64.0034 90.72ZM74.8754 83.088V64.224H83.7314V84.312L74.8754 83.088Z" fill="white"/>
</svg>
