<svg width="122" height="128" viewBox="0 0 122 128" fill="none" xmlns="http://www.w3.org/2000/svg">
<ellipse cx="61" cy="64" rx="61" ry="64" fill="#8BBF38"/>
<path d="M31.8919 69.72L31.6679 64.792L43.4119 52.6H48.0839L38.3239 62.968L36.0199 65.496L31.8919 69.72ZM28.1799 75V52.6H32.3399V75H28.1799ZM43.7959 75L35.2199 64.792L37.9719 61.752L48.6599 75H43.7959ZM61.0479 75.32C59.3412 75.32 57.7519 75.0427 56.2799 74.488C54.8292 73.912 53.5599 73.112 52.4719 72.088C51.4052 71.0427 50.5732 69.816 49.9759 68.408C49.3785 67 49.0799 65.464 49.0799 63.8C49.0799 62.136 49.3785 60.6 49.9759 59.192C50.5732 57.784 51.4159 56.568 52.5039 55.544C53.5919 54.4987 54.8612 53.6987 56.3119 53.144C57.7625 52.568 59.3519 52.28 61.0799 52.28C62.9145 52.28 64.5892 52.6 66.1039 53.24C67.6185 53.8587 68.8985 54.7867 69.9439 56.024L67.2559 58.552C66.4452 57.6773 65.5385 57.0267 64.5359 56.6C63.5332 56.152 62.4452 55.928 61.2719 55.928C60.0985 55.928 59.0212 56.12 58.0399 56.504C57.0799 56.888 56.2372 57.432 55.5119 58.136C54.8079 58.84 54.2532 59.672 53.8479 60.632C53.4639 61.592 53.2719 62.648 53.2719 63.8C53.2719 64.952 53.4639 66.008 53.8479 66.968C54.2532 67.928 54.8079 68.76 55.5119 69.464C56.2372 70.168 57.0799 70.712 58.0399 71.096C59.0212 71.48 60.0985 71.672 61.2719 71.672C62.4452 71.672 63.5332 71.4587 64.5359 71.032C65.5385 70.584 66.4452 69.912 67.2559 69.016L69.9439 71.576C68.8985 72.792 67.6185 73.72 66.1039 74.36C64.5892 75 62.9039 75.32 61.0479 75.32ZM89.6739 52.6H93.8339V75H89.6739V52.6ZM78.0899 75H73.9299V52.6H78.0899V75ZM89.9939 65.4H77.7379V61.848H89.9939V65.4Z" fill="white"/>
</svg>
