<svg width="709" height="488" viewBox="0 0 709 488" fill="none" xmlns="http://www.w3.org/2000/svg">
<path d="M646.442 456.863H126.502C126.502 456.863 -14.6082 422.553 1.24184 307.863C27.6618 228.463 64.8518 256.443 141.062 189.473C191.692 141.853 133.062 42.9029 171.772 13.2929C242.852 -36.3571 380.572 67.7029 400.152 86.5129C415.462 101.273 431.562 109.513 451.892 104.513C526.712 86.1229 570.722 70.7529 609.892 103.513C655.692 141.813 555.082 233.293 598.992 277.153C642.902 321.013 693.822 268.363 707.452 324.523C716.932 379.503 646.442 371.113 646.442 456.863Z" fill="#EDF7FF"/>
<path d="M488.892 186.273L462.152 139.963C461.75 138.908 461.037 138 460.108 137.36C459.178 136.719 458.076 136.376 456.947 136.376C455.818 136.376 454.716 136.719 453.786 137.36C452.857 138 452.144 138.908 451.742 139.963L425.002 186.273C424.295 187.148 423.871 188.218 423.784 189.339C423.696 190.461 423.951 191.583 424.514 192.557C425.077 193.531 425.922 194.312 426.937 194.797C427.952 195.282 429.09 195.448 430.202 195.273H483.682C484.46 195.393 485.255 195.348 486.014 195.141C486.774 194.935 487.482 194.571 488.092 194.073C488.657 193.614 489.126 193.047 489.472 192.407C489.818 191.766 490.035 191.063 490.109 190.339C490.183 189.614 490.114 188.882 489.905 188.185C489.696 187.487 489.352 186.837 488.892 186.273ZM460.202 157.273L459.122 173.273H454.782L453.712 157.273H460.202ZM456.772 183.543C456.182 183.462 455.627 183.215 455.174 182.83C454.72 182.444 454.386 181.937 454.211 181.368C454.036 180.799 454.028 180.192 454.187 179.618C454.346 179.044 454.665 178.528 455.108 178.13C455.551 177.733 456.098 177.47 456.686 177.373C457.273 177.276 457.876 177.349 458.423 177.584C458.97 177.819 459.439 178.205 459.774 178.698C460.108 179.19 460.295 179.768 460.312 180.363C460.29 180.806 460.181 181.24 459.991 181.64C459.802 182.041 459.535 182.4 459.206 182.697C458.877 182.995 458.493 183.224 458.075 183.373C457.657 183.521 457.215 183.586 456.772 183.563V183.543Z" fill="url(#paint0_linear_333_156)"/>
<path d="M460.202 157.293L459.122 173.263H454.782L453.712 157.293H460.202Z" fill="white"/>
<path d="M460.312 180.383C460.385 181.075 460.241 181.774 459.9 182.381C459.56 182.989 459.04 183.476 458.411 183.776C457.782 184.076 457.076 184.174 456.389 184.056C455.703 183.938 455.07 183.61 454.577 183.117C454.085 182.625 453.757 181.992 453.639 181.305C453.521 180.619 453.619 179.912 453.918 179.284C454.218 178.655 454.706 178.135 455.313 177.794C455.921 177.454 456.619 177.31 457.312 177.383C458.08 177.463 458.797 177.805 459.343 178.351C459.889 178.897 460.231 179.615 460.312 180.383V180.383Z" fill="white"/>
<path d="M247.252 170.243C248.979 170.24 250.687 169.884 252.271 169.196C253.855 168.508 255.281 167.503 256.462 166.243L261.752 160.693V151.173H222.912L216.312 167.643L240.372 175.793C240.705 174.218 241.572 172.805 242.825 171.795C244.078 170.784 245.642 170.236 247.252 170.243Z" fill="url(#paint1_linear_333_156)"/>
<path d="M226.472 116.433L279.072 124.323C281.013 124.581 282.882 125.227 284.569 126.222C286.256 127.216 287.726 128.539 288.892 130.113C290.554 132.448 291.439 135.247 291.422 138.113C291.413 141.052 290.671 143.943 289.262 146.523C288.155 148.517 286.607 150.232 284.735 151.536C282.862 152.839 280.717 153.697 278.462 154.043L226.462 162.473L226.472 116.433Z" fill="#C9E2F4"/>
<path d="M226.472 162.513C239.197 162.513 249.512 152.197 249.512 139.473C249.512 126.748 239.197 116.433 226.472 116.433C213.747 116.433 203.432 126.748 203.432 139.473C203.432 152.197 213.747 162.513 226.472 162.513Z" fill="url(#paint2_linear_333_156)"/>
<path d="M226.472 156.982C236.142 156.982 243.982 149.143 243.982 139.472C243.982 129.802 236.142 121.962 226.472 121.962C216.801 121.962 208.962 129.802 208.962 139.472C208.962 149.143 216.801 156.982 226.472 156.982Z" fill="url(#paint3_linear_333_156)"/>
<path d="M242.072 139.473C242.072 139.633 242.072 139.813 242.072 139.963C241.949 143.929 240.319 147.698 237.513 150.504C234.708 153.31 230.938 154.94 226.972 155.063H226.492C225.678 155.065 224.865 155.001 224.062 154.873C223.261 154.748 222.472 154.557 221.702 154.303C219.79 153.704 218.016 152.732 216.482 151.443C215.947 150.993 215.443 150.509 214.972 149.993C214.742 149.757 214.528 149.507 214.332 149.243C212.083 146.481 210.86 143.025 210.872 139.463C210.871 136.519 211.703 133.635 213.272 131.144C214.841 128.653 217.083 126.657 219.738 125.387C222.393 124.116 225.354 123.622 228.278 123.963C231.202 124.304 233.97 125.465 236.262 127.313C236.523 127.516 236.774 127.733 237.012 127.963C237.532 128.426 238.014 128.931 238.452 129.473C239.744 131.002 240.72 132.773 241.322 134.683C241.574 135.455 241.771 136.243 241.912 137.043C242.026 137.848 242.079 138.66 242.072 139.473V139.473Z" fill="url(#paint4_linear_333_156)"/>
<path d="M222.332 136.513C224.679 136.513 226.582 134.61 226.582 132.263C226.582 129.915 224.679 128.013 222.332 128.013C219.985 128.013 218.082 129.915 218.082 132.263C218.082 134.61 219.985 136.513 222.332 136.513Z" fill="white"/>
<path d="M241.312 134.693L221.692 154.313C219.781 153.712 218.007 152.74 216.472 151.453L238.472 129.453C239.763 130.989 240.729 132.772 241.312 134.693Z" fill="url(#paint5_linear_333_156)"/>
<path d="M237.002 127.972L214.952 149.972C214.723 149.739 214.512 149.488 214.322 149.222L236.252 127.292C236.516 127.503 236.767 127.73 237.002 127.972V127.972Z" fill="url(#paint6_linear_333_156)"/>
<path d="M242.072 139.482C242.072 139.632 242.072 139.812 242.072 139.972L226.972 155.062H226.482C225.672 155.068 224.862 155.007 224.062 154.882L241.912 137.042C242.02 137.851 242.074 138.666 242.072 139.482V139.482Z" fill="url(#paint7_linear_333_156)"/>
<path d="M528.632 375.933L467.262 487.643L442.032 473.593L458.222 424.503L475.682 371.643L476.682 368.733L437.712 317.043V487.643H276.272V299.753L199.662 331.803C177.762 340.973 155.662 319.203 164.492 297.163L216.312 167.703L240.372 175.853L223.822 255.543L281.422 221.543C286.852 218.333 293.044 216.641 299.352 216.643H319.252L339.152 216.113L380.062 213.703L400.062 220.503L443.152 232.213C453.998 235.154 463.314 242.121 469.202 251.693L527.892 346.993C530.564 351.32 532.04 356.279 532.17 361.363C532.3 366.447 531.079 371.474 528.632 375.933V375.933Z" fill="#0F7143"/>
<path d="M380.042 213.733L379.802 215.953C379.797 215.964 379.795 215.976 379.795 215.988C379.795 216 379.797 216.012 379.802 216.023C379.192 219.143 377.192 225.473 370.692 235.353C364.646 244.299 355.843 251.023 345.622 254.503V254.503C345.142 253.813 337.432 242.683 337.242 231.193C337.173 228.288 337.3 225.381 337.622 222.493V222.443L339.222 216.163L380.042 213.733Z" fill="white"/>
<path d="M345.572 254.523C345.572 254.523 337.342 243.043 337.162 231.183C336.982 219.323 339.162 216.133 339.162 216.133V205.893C339.162 205.893 329.342 199.893 322.222 209.043C314.432 219.083 319.712 249.753 345.572 254.523Z" fill="url(#paint8_linear_333_156)"/>
<path d="M380.042 175.053C380.042 175.053 386.772 167.053 398.542 153.053C410.312 139.053 413.042 110.643 390.152 108.983C390.152 108.983 395.402 93.8527 380.982 89.9827C366.562 86.1127 350.232 91.6727 338.982 77.9827C327.732 64.2927 311.832 60.9227 303.672 75.8227C295.512 90.7227 305.782 128.693 325.752 139.973C345.722 151.253 377.642 164.003 380.042 175.053Z" fill="url(#paint9_linear_333_156)"/>
<path d="M369.472 119.312C369.472 119.312 351.412 132.523 317.472 125.313C317.472 125.313 322.472 175.163 325.762 183.813C329.052 192.463 339.152 189.403 339.152 189.403V216.132C339.152 216.132 350.502 238.242 380.052 213.732V162.523C380.052 162.523 395.872 154.273 387.982 143.213C381.862 134.633 371.412 145.442 371.412 145.442C371.412 145.442 365.632 134.932 369.472 119.312Z" fill="url(#paint10_linear_333_156)"/>
<path d="M330.072 175.053C333.672 168.753 328.202 163.913 336.072 159.223C343.942 154.533 343.172 158.503 353.072 154.223C362.972 149.943 358.942 139.513 358.942 139.513L336.852 127.513C330.319 127.471 323.807 126.754 317.422 125.373C317.422 125.373 322.422 175.223 325.702 183.873C326.876 180.801 328.339 177.847 330.072 175.053V175.053Z" fill="#FFC0AC"/>
<path d="M345.572 254.523C355.81 251.045 364.629 244.313 370.682 235.353C380.412 220.583 380.052 213.733 380.052 213.733V203.953C380.052 203.953 398.052 204.223 398.252 225.283C398.452 246.343 373.442 269.893 345.572 254.523Z" fill="url(#paint11_linear_333_156)"/>
<path d="M339.152 189.403C349.522 188.172 359.036 183.042 365.762 175.053C365.762 175.053 358.672 197.273 339.152 197.273V189.403Z" fill="#1D164D"/>
<g opacity="0.2">
<path d="M396.152 382.413L360.752 347.003C358.916 345.177 356.431 344.152 353.842 344.152C351.252 344.152 348.768 345.177 346.932 347.003L311.542 382.413C309.712 384.243 308.685 386.725 308.685 389.313C308.685 391.9 309.712 394.382 311.542 396.213L346.902 431.643C347.808 432.55 348.885 433.27 350.069 433.761C351.254 434.252 352.524 434.505 353.807 434.505C355.089 434.505 356.359 434.252 357.544 433.761C358.729 433.27 359.805 432.55 360.712 431.643L396.152 396.233C397.96 394.444 398.991 392.016 399.022 389.473C399.012 389.366 399.012 389.259 399.022 389.153C398.98 386.618 397.95 384.2 396.152 382.413V382.413ZM368.152 396.233L360.782 403.583C359.875 404.49 358.797 405.21 357.612 405.702C356.426 406.193 355.155 406.446 353.872 406.446C352.588 406.446 351.318 406.193 350.132 405.702C348.946 405.21 347.869 404.49 346.962 403.583V403.583L339.602 396.233C338.694 395.325 337.974 394.248 337.483 393.062C336.992 391.877 336.739 390.606 336.739 389.323C336.739 388.039 336.992 386.768 337.483 385.583C337.974 384.397 338.694 383.32 339.602 382.413V382.413L346.962 375.063C347.868 374.155 348.945 373.435 350.13 372.944C351.314 372.453 352.584 372.2 353.867 372.2C355.149 372.2 356.419 372.453 357.604 372.944C358.789 373.435 359.865 374.155 360.772 375.063V375.063L368.142 382.413C369.973 384.246 371.001 386.731 371.001 389.323C371.001 391.914 369.973 394.399 368.142 396.233V396.233H368.152Z" fill="white"/>
<path d="M350.942 449.963L315.552 414.553C313.716 412.718 311.227 411.688 308.632 411.688C306.037 411.688 303.548 412.718 301.712 414.553L276.272 440.013V473.723L290.152 487.643H327.152L350.992 463.803C352.822 461.971 353.85 459.487 353.85 456.898C353.85 454.308 352.822 451.825 350.992 449.993L350.942 449.963ZM322.942 463.783L315.592 471.133C313.756 472.967 311.267 473.998 308.672 473.998C306.077 473.998 303.588 472.967 301.752 471.133L294.402 463.783C293.494 462.876 292.774 461.798 292.283 460.613C291.792 459.427 291.539 458.156 291.539 456.873C291.539 455.589 291.792 454.319 292.283 453.133C292.774 451.947 293.494 450.87 294.402 449.963L301.752 442.593C303.588 440.758 306.077 439.728 308.672 439.728C311.267 439.728 313.756 440.758 315.592 442.593L322.942 449.963C323.851 450.869 324.571 451.945 325.063 453.13C325.555 454.315 325.808 455.585 325.808 456.868C325.808 458.151 325.555 459.421 325.063 460.606C324.571 461.791 323.851 462.867 322.942 463.773V463.783Z" fill="white"/>
<path d="M405.892 414.563C404.985 413.655 403.908 412.935 402.722 412.444C401.536 411.953 400.265 411.7 398.982 411.7C397.699 411.7 396.428 411.953 395.242 412.444C394.057 412.935 392.979 413.655 392.072 414.563V414.563L356.662 449.963C354.836 451.799 353.811 454.283 353.811 456.873C353.811 459.462 354.836 461.947 356.662 463.783L380.522 487.643H417.442L437.712 467.393V446.393L405.892 414.563ZM413.242 463.793L405.892 471.143C404.985 472.051 403.908 472.771 402.722 473.262C401.536 473.753 400.265 474.006 398.982 474.006C397.699 474.006 396.428 473.753 395.242 473.262C394.057 472.771 392.979 472.051 392.072 471.143V471.143L384.722 463.793C383.814 462.886 383.094 461.808 382.603 460.623C382.112 459.437 381.859 458.166 381.859 456.883C381.859 455.599 382.112 454.329 382.603 453.143C383.094 451.957 383.814 450.88 384.722 449.973V449.973L392.072 442.603C392.979 441.695 394.057 440.975 395.242 440.484C396.428 439.993 397.699 439.74 398.982 439.74C400.265 439.74 401.536 439.993 402.722 440.484C403.908 440.975 404.985 441.695 405.892 442.603L413.242 449.973C414.149 450.879 414.869 451.956 415.36 453.14C415.852 454.325 416.104 455.595 416.104 456.878C416.104 458.16 415.852 459.43 415.36 460.615C414.869 461.8 414.149 462.876 413.242 463.783V463.793Z" fill="white"/>
<path d="M401.842 382.413C400.053 384.204 399.031 386.621 398.992 389.153V389.473C399.019 392.012 400.043 394.44 401.842 396.233L437.252 431.643C437.392 431.783 437.552 431.922 437.712 432.062V404.003C437.552 403.87 437.398 403.73 437.252 403.583L429.892 396.233C428.984 395.325 428.264 394.248 427.773 393.062C427.282 391.877 427.029 390.606 427.029 389.323C427.029 388.039 427.282 386.768 427.773 385.583C428.264 384.397 428.984 383.32 429.892 382.413V382.413L437.252 375.053C437.392 374.913 437.552 374.773 437.712 374.633V346.583C437.552 346.715 437.398 346.855 437.252 347.003L401.842 382.413Z" fill="white"/>
<path d="M305.762 382.413L276.272 352.903V380.903L277.722 382.363C278.63 383.27 279.35 384.347 279.841 385.533C280.332 386.719 280.585 387.989 280.585 389.273C280.585 390.556 280.332 391.827 279.841 393.013C279.35 394.198 278.63 395.276 277.722 396.183L276.272 397.643V425.743L305.762 396.233C306.669 395.326 307.389 394.25 307.88 393.065C308.371 391.88 308.624 390.61 308.624 389.328C308.624 388.045 308.371 386.775 307.88 385.59C307.389 384.406 306.669 383.329 305.762 382.423V382.413Z" fill="white"/>
</g>
<path opacity="0.54" d="M315.042 487.643C315.042 487.643 373.042 486.643 395.752 456.873C418.462 427.103 391.572 417.963 409.832 391.533C428.092 365.103 413.202 362.703 424.012 344.163C431.732 330.913 403.112 278.973 403.112 278.973L437.712 317.063V487.643H315.042Z" fill="#0A542F"/>
<g opacity="0.54">
<path d="M276.272 299.753V253.173C276.272 255.283 275.802 279.623 257.872 286.173C239.132 293.023 247.422 303.473 228.682 308.873C216.232 312.463 215.542 321.393 211.152 326.993L276.272 299.753Z" fill="#0A542F"/>
</g>
<path opacity="0.54" d="M223.822 255.543L218.592 278.963L237.672 247.373L223.822 255.543Z" fill="#0A542F"/>
<path d="M355.552 365.723L345.752 270.353L338.152 365.693L335.282 365.463L344.152 254.403C344.179 254.044 344.34 253.708 344.603 253.462C344.866 253.215 345.212 253.077 345.572 253.073V253.073C345.929 253.071 346.275 253.204 346.54 253.445C346.804 253.685 346.969 254.016 347.002 254.373L358.422 365.443L355.552 365.723Z" fill="white"/>
<path d="M336.672 369.483C338.826 369.483 340.572 367.737 340.572 365.583C340.572 363.429 338.826 361.683 336.672 361.683C334.518 361.683 332.772 363.429 332.772 365.583C332.772 367.737 334.518 369.483 336.672 369.483Z" fill="white"/>
<path d="M356.982 369.483C359.136 369.483 360.882 367.737 360.882 365.583C360.882 363.429 359.136 361.683 356.982 361.683C354.828 361.683 353.082 363.429 353.082 365.583C353.082 367.737 354.828 369.483 356.982 369.483Z" fill="white"/>
<path d="M386.532 225.283C389.422 211.283 380.042 207.963 380.042 207.963V213.733C380.042 213.733 380.402 220.583 370.672 235.353C364.626 244.315 355.809 251.048 345.572 254.523C360.832 256.383 383.652 239.323 386.532 225.283Z" fill="#1D164D"/>
<path d="M339.152 205.893C339.152 205.893 326.362 208.363 327.442 225.283C328.312 238.953 339.612 248.673 343.912 251.913C341.502 247.913 337.302 239.633 337.172 231.183C336.992 219.323 339.172 216.183 339.172 216.183L339.152 205.893Z" fill="#1D164D"/>
<path d="M335.872 126.913H345.632C347.824 126.903 349.985 127.438 351.919 128.47C353.854 129.502 355.502 130.998 356.714 132.825C357.927 134.651 358.667 136.751 358.867 138.934C359.067 141.117 358.722 143.316 357.862 145.333L357.662 145.773C356.578 147.98 354.89 149.835 352.795 151.122C350.699 152.409 348.281 153.075 345.822 153.043H325.722L335.872 126.913Z" fill="url(#paint12_linear_333_156)"/>
<path d="M276.262 114.643L334.082 123.313C336.217 123.594 338.272 124.303 340.126 125.397C341.981 126.492 343.595 127.949 344.872 129.683C346.715 132.259 347.688 135.355 347.652 138.523C347.649 141.751 346.837 144.928 345.292 147.763C344.074 149.956 342.37 151.842 340.311 153.275C338.252 154.709 335.892 155.652 333.412 156.033L276.252 165.303L276.262 114.643Z" fill="url(#paint13_linear_333_156)"/>
<path d="M276.262 165.312C290.251 165.312 301.592 153.972 301.592 139.982C301.592 125.993 290.251 114.652 276.262 114.652C262.272 114.652 250.932 125.993 250.932 139.982C250.932 153.972 262.272 165.312 276.262 165.312Z" fill="url(#paint14_linear_333_156)"/>
<path d="M276.262 159.232C286.893 159.232 295.512 150.614 295.512 139.982C295.512 129.351 286.893 120.732 276.262 120.732C265.63 120.732 257.012 129.351 257.012 139.982C257.012 150.614 265.63 159.232 276.262 159.232Z" fill="url(#paint15_linear_333_156)"/>
<path d="M293.412 139.983C293.413 142.234 292.971 144.464 292.11 146.545C291.249 148.626 289.987 150.516 288.395 152.109C286.804 153.702 284.914 154.965 282.833 155.827C280.753 156.689 278.524 157.133 276.272 157.133V157.133C275.654 157.139 275.036 157.106 274.422 157.033C273.439 156.941 272.468 156.753 271.522 156.473C269.27 155.83 267.176 154.726 265.372 153.233C264.738 152.717 264.143 152.155 263.592 151.553C263.332 151.263 263.092 150.973 262.842 150.683C260.212 147.385 258.888 143.234 259.124 139.023C259.36 134.811 261.139 130.834 264.121 127.851C267.103 124.868 271.079 123.087 275.29 122.85C279.502 122.612 283.653 123.934 286.952 126.563C287.262 126.813 287.542 127.053 287.832 127.313C288.429 127.866 288.987 128.461 289.502 129.093C291.642 131.664 292.968 134.815 293.312 138.143C293.38 138.754 293.414 139.368 293.412 139.983Z" fill="url(#paint16_linear_333_156)"/>
<path d="M270.992 137.443C273.571 137.443 275.662 135.352 275.662 132.773C275.662 130.193 273.571 128.103 270.992 128.103C268.413 128.103 266.322 130.193 266.322 132.773C266.322 135.352 268.413 137.443 270.992 137.443Z" fill="white"/>
<path d="M292.742 135.242L271.522 156.482C269.27 155.834 267.176 154.728 265.372 153.232L289.502 129.092C290.992 130.899 292.095 132.992 292.742 135.242V135.242Z" fill="url(#paint17_linear_333_156)"/>
<path d="M287.832 127.312L263.592 151.542L262.842 150.682L286.952 126.562C287.252 126.812 287.542 127.053 287.832 127.312Z" fill="url(#paint18_linear_333_156)"/>
<path d="M293.412 139.982C293.412 140.563 293.382 141.144 293.322 141.722L277.982 157.052C276.799 157.179 275.605 157.179 274.422 157.052L293.312 138.152C293.38 138.76 293.413 139.371 293.412 139.982Z" fill="url(#paint19_linear_333_156)"/>
<defs>
<linearGradient id="paint0_linear_333_156" x1="423.762" y1="165.863" x2="490.152" y2="165.863" gradientUnits="userSpaceOnUse">
<stop stop-color="#1D164D"/>
<stop offset="1" stop-color="#4A4975"/>
</linearGradient>
<linearGradient id="paint1_linear_333_156" x1="244.437" y1="145.449" x2="240.736" y2="183.192" gradientUnits="userSpaceOnUse">
<stop stop-color="#FFC0AC"/>
<stop offset="1" stop-color="#FFD6C7"/>
</linearGradient>
<linearGradient id="paint2_linear_333_156" x1="231.691" y1="157.743" x2="204.072" y2="96.2574" gradientUnits="userSpaceOnUse">
<stop stop-color="#1D164D"/>
<stop offset="1" stop-color="#4A4975"/>
</linearGradient>
<linearGradient id="paint3_linear_333_156" x1="231.55" y1="142.62" x2="206.311" y2="99.6375" gradientUnits="userSpaceOnUse">
<stop stop-color="#C9E2F4"/>
<stop offset="1" stop-color="#EAF5FF"/>
</linearGradient>
<linearGradient id="paint4_linear_333_156" x1="227.715" y1="147.928" x2="216.589" y2="112.755" gradientUnits="userSpaceOnUse">
<stop stop-color="#1D164D"/>
<stop offset="1" stop-color="#4A4975"/>
</linearGradient>
<linearGradient id="paint5_linear_333_156" x1="199.137" y1="122.184" x2="235.27" y2="151.071" gradientUnits="userSpaceOnUse">
<stop stop-color="white"/>
<stop offset="1" stop-color="white" stop-opacity="0"/>
</linearGradient>
<linearGradient id="paint6_linear_333_156" x1="199.785" y1="119.633" x2="235.705" y2="148.434" gradientUnits="userSpaceOnUse">
<stop stop-color="white"/>
<stop offset="1" stop-color="white" stop-opacity="0"/>
</linearGradient>
<linearGradient id="paint7_linear_333_156" x1="200.492" y1="119.029" x2="236.629" y2="147.836" gradientUnits="userSpaceOnUse">
<stop stop-color="white"/>
<stop offset="1" stop-color="white" stop-opacity="0"/>
</linearGradient>
<linearGradient id="paint8_linear_333_156" x1="346.305" y1="256.45" x2="313.491" y2="232.226" gradientUnits="userSpaceOnUse">
<stop stop-color="#1D164D"/>
<stop offset="1" stop-color="#4A4975"/>
</linearGradient>
<linearGradient id="paint9_linear_333_156" x1="382.188" y1="188.5" x2="340.31" y2="81.8176" gradientUnits="userSpaceOnUse">
<stop stop-color="#1D164D"/>
<stop offset="1" stop-color="#4A4975"/>
</linearGradient>
<linearGradient id="paint10_linear_333_156" x1="390.05" y1="245.698" x2="334.394" y2="180.454" gradientUnits="userSpaceOnUse">
<stop stop-color="#FFC0AC"/>
<stop offset="1" stop-color="#FFD6C7"/>
</linearGradient>
<linearGradient id="paint11_linear_333_156" x1="380.482" y1="260.359" x2="363.215" y2="219.392" gradientUnits="userSpaceOnUse">
<stop stop-color="#1D164D"/>
<stop offset="1" stop-color="#4A4975"/>
</linearGradient>
<linearGradient id="paint12_linear_333_156" x1="347.077" y1="153.997" x2="341.873" y2="134.942" gradientUnits="userSpaceOnUse">
<stop stop-color="#1D164D"/>
<stop offset="1" stop-color="#4A4975"/>
</linearGradient>
<linearGradient id="paint13_linear_333_156" x1="321.74" y1="173.158" x2="310.387" y2="125.917" gradientUnits="userSpaceOnUse">
<stop stop-color="#C9E2F4"/>
<stop offset="1" stop-color="#EAF5FF"/>
</linearGradient>
<linearGradient id="paint14_linear_333_156" x1="286.923" y1="166.222" x2="266.679" y2="116.335" gradientUnits="userSpaceOnUse">
<stop stop-color="#1D164D"/>
<stop offset="1" stop-color="#4A4975"/>
</linearGradient>
<linearGradient id="paint15_linear_333_156" x1="281.952" y1="148.789" x2="260.8" y2="105.112" gradientUnits="userSpaceOnUse">
<stop stop-color="#C9E2F4"/>
<stop offset="1" stop-color="#EAF5FF"/>
</linearGradient>
<linearGradient id="paint16_linear_333_156" x1="279.73" y1="141.416" x2="263.322" y2="108.6" gradientUnits="userSpaceOnUse">
<stop stop-color="#1D164D"/>
<stop offset="1" stop-color="#4A4975"/>
</linearGradient>
<linearGradient id="paint17_linear_333_156" x1="257.043" y1="119.094" x2="284.022" y2="146.241" gradientUnits="userSpaceOnUse">
<stop stop-color="white"/>
<stop offset="1" stop-color="white" stop-opacity="0"/>
</linearGradient>
<linearGradient id="paint18_linear_333_156" x1="259.412" y1="119.953" x2="286.335" y2="147.054" gradientUnits="userSpaceOnUse">
<stop stop-color="white"/>
<stop offset="1" stop-color="white" stop-opacity="0"/>
</linearGradient>
<linearGradient id="paint19_linear_333_156" x1="259.291" y1="120.727" x2="286.411" y2="147.827" gradientUnits="userSpaceOnUse">
<stop stop-color="white"/>
<stop offset="1" stop-color="white" stop-opacity="0"/>
</linearGradient>
</defs>
</svg>
