<svg width="30" height="35" viewBox="0 0 30 35" fill="none" xmlns="http://www.w3.org/2000/svg">
<path d="M14.875 34.0019C16.0022 34.0019 17.0832 33.5541 17.8802 32.7571C18.6772 31.96 19.125 30.879 19.125 29.7519H10.625C10.625 30.879 11.0728 31.96 11.8698 32.7571C12.6668 33.5541 13.7478 34.0019 14.875 34.0019ZM16.9894 2.33723C17.019 2.04176 16.9864 1.74335 16.8937 1.46125C16.8009 1.17915 16.6501 0.919625 16.4509 0.699408C16.2516 0.47919 16.0085 0.303173 15.737 0.182706C15.4656 0.0622401 15.172 0 14.875 0C14.578 0 14.2844 0.0622401 14.013 0.182706C13.7415 0.303173 13.4984 0.47919 13.2991 0.699408C13.0999 0.919625 12.9491 1.17915 12.8563 1.46125C12.7636 1.74335 12.731 2.04176 12.7606 2.33723C10.3588 2.82577 8.19957 4.12937 6.64862 6.0273C5.09768 7.92522 4.25031 10.3008 4.25 12.7519C4.25 15.0851 3.1875 25.5019 0 27.6269H29.75C26.5625 25.5019 25.5 15.0851 25.5 12.7519C25.5 7.60936 21.845 3.31686 16.9894 2.33723V2.33723Z" fill="#4C4C4C"/>
</svg>
