<svg width="122" height="128" viewBox="0 0 122 128" fill="none" xmlns="http://www.w3.org/2000/svg">
<ellipse cx="61" cy="64" rx="61" ry="64" fill="#8BBF38"/>
<path d="M42.1469 90V39.6H62.8829C67.3469 39.6 71.1629 40.32 74.3309 41.76C77.5469 43.2 80.0189 45.264 81.7469 47.952C83.4749 50.64 84.3389 53.832 84.3389 57.528C84.3389 61.224 83.4749 64.416 81.7469 67.104C80.0189 69.792 77.5469 71.856 74.3309 73.296C71.1629 74.736 67.3469 75.456 62.8829 75.456H47.3309L51.5069 71.064V90H42.1469ZM51.5069 72.072L47.3309 67.536H62.4509C66.5789 67.536 69.6749 66.672 71.7389 64.944C73.8509 63.168 74.9069 60.696 74.9069 57.528C74.9069 54.312 73.8509 51.84 71.7389 50.112C69.6749 48.384 66.5789 47.52 62.4509 47.52H47.3309L51.5069 42.912V72.072Z" fill="white"/>
</svg>
