<svg width="40" height="40" viewBox="0 0 40 40" fill="none" xmlns="http://www.w3.org/2000/svg">
<path d="M40 38.3507C40 37.8553 39.7153 37.4353 39.3153 37.2013C39.4566 36.966 39.5321 36.6971 39.534 36.4227C39.5351 36.0198 39.3761 35.6329 39.0921 35.3472C38.8081 35.0614 38.4222 34.9001 38.0193 34.8987C37.988 34.8987 37.9547 34.908 37.9227 34.912V34.7233C37.9227 34.2933 37.5747 33.9433 37.1467 33.9433C37.038 33.9433 36.938 33.972 36.8447 34.014V33.4627H38.0327V29.8973H37.172V26.9267H38.0327V23.3607H37.172V20.3893H38.0327V16.8233H37.172V13.852H38.0327V10.2867H37.172V7.31533H38.0327V1.96733H30.164V0H9.18067V2.56133H7.13133V1.96733H1.18867V31.68H0V33.4627H1.18867V40H40V39.3447H39.562C39.8287 39.0973 40 38.7447 40 38.3507ZM24.9587 7.316H27.93V10.2873H24.9587V7.316ZM24.9587 13.852H27.93V16.8233H24.9587V13.852ZM24.9587 20.3893H27.93V23.3607H24.9587V20.3893ZM24.9587 26.9267H27.93V29.898H24.9587V26.9267ZM19.016 7.316H21.9873V10.2873H19.016V7.316ZM19.016 13.852H21.9873V16.8233H19.016V13.852ZM19.016 20.3893H21.9873V23.3607H19.016V20.3893ZM19.016 26.9267H21.9873V29.898H19.016V26.9267ZM9.65067 39.3447H7.868V34.652H9.65067V39.3447ZM12.0273 39.3447H10.2447V34.652H12.0273V39.3447ZM16.0447 39.3447H12.6213V34.0573H7.27333V39.3447H2.37667V33.4633H16.0447V39.3447ZM16.0447 26.9267V31.6807H7.13067V26.0353H16.0447V26.9267ZM16.0447 20.3893V24.252H7.13067V19.498H16.0447V20.3893ZM16.0447 13.852V17.7147H7.13067V12.9607H16.0447V13.852ZM16.0447 7.316V11.1787H7.13067V6.42467H16.0447V7.316ZM16.0447 4.64133H7.13067V3.15533H16.0447V4.64133ZM19.016 39.3447H17.0493V38.6893H19.016V33.4633H21.9873V38.6893H24.9587V33.4633H27.93V38.6893H30.65C30.7847 39.006 31.056 39.2447 31.3893 39.3447H19.016ZM30.902 35.5087V33.4633H33.8733V34.3747C33.8013 34.36 33.7327 34.336 33.6553 34.336C33.435 34.3369 33.2195 34.4005 33.0341 34.5194C32.8486 34.6383 32.7008 34.8075 32.608 35.0073C32.447 34.9508 32.2779 34.9209 32.1073 34.9187C31.6173 34.9187 31.1853 35.152 30.902 35.5087ZM31.7993 38.2333C31.5853 38.2333 31.414 38.4487 31.414 38.2333C31.414 38.1306 31.4548 38.0321 31.5274 37.9594C31.6001 37.8868 31.6986 37.846 31.8013 37.846C31.9041 37.846 32.0026 37.8868 32.0752 37.9594C32.1479 38.0321 32.1887 38.1306 32.1887 38.2333C32.1887 38.4487 32.0167 38.2333 31.7993 38.2333ZM32.2153 36.1347C31.786 36.1347 31.438 36.8173 31.438 36.382C31.438 36.1755 31.52 35.9774 31.6661 35.8314C31.8121 35.6854 32.0102 35.6033 32.2167 35.6033C32.4232 35.6033 32.6212 35.6854 32.7673 35.8314C32.9133 35.9774 32.9953 36.1755 32.9953 36.382C32.9953 36.818 32.65 36.1347 32.2153 36.1347ZM33.9047 38.2307C33.4767 38.2307 33.1287 38.83 33.1287 38.398C33.129 38.1921 33.2108 37.9946 33.3562 37.8487C33.5016 37.7029 33.6987 37.6204 33.9047 37.6193C34.0066 37.6195 34.1074 37.6398 34.2014 37.6791C34.2955 37.7184 34.3808 37.7758 34.4525 37.8482C34.5243 37.9206 34.581 38.0064 34.6195 38.1007C34.6579 38.1951 34.6774 38.2961 34.6767 38.398C34.6773 38.83 34.3367 38.2307 33.9047 38.2307ZM34.8807 35.1153C34.8807 34.9763 34.9359 34.8429 35.0342 34.7446C35.1326 34.6462 35.2659 34.591 35.405 34.591C35.5441 34.591 35.6774 34.6462 35.7758 34.7446C35.8741 34.8429 35.9293 34.9763 35.9293 35.1153C35.9293 35.406 35.696 34.9687 35.4033 34.9687C35.114 34.9687 34.8807 35.4053 34.8807 35.1153ZM35.7927 37.04C35.5787 37.04 35.4073 37.256 35.4073 37.04C35.4073 36.8273 35.5787 36.6533 35.7927 36.6533C35.8437 36.653 35.8942 36.6627 35.9415 36.682C35.9887 36.7013 36.0316 36.7297 36.0678 36.7656C36.104 36.8016 36.1327 36.8443 36.1523 36.8914C36.1719 36.9385 36.182 36.989 36.182 37.04C36.182 37.256 36.012 37.04 35.7927 37.04ZM36.1887 29.898H30.246V26.9267H36.1887V29.898ZM36.1887 23.3607H30.246V20.3893H36.1887V23.3607ZM36.1887 16.8233H30.246V13.852H36.1887V16.8233ZM36.1887 10.2873H30.246V7.316H36.1887V10.2873ZM36.852 38.4427C36.562 38.4427 36.3293 38.8793 36.3293 38.5893C36.3268 38.519 36.3385 38.4489 36.3637 38.3831C36.3889 38.3174 36.4271 38.2574 36.4759 38.2068C36.5248 38.1561 36.5834 38.1159 36.6482 38.0883C36.713 38.0608 36.7826 38.0466 36.853 38.0466C36.9234 38.0466 36.9931 38.0608 37.0578 38.0883C37.1226 38.1159 37.1812 38.1561 37.2301 38.2068C37.2789 38.2574 37.3171 38.3174 37.3423 38.3831C37.3675 38.4489 37.3792 38.519 37.3767 38.5893C37.3767 38.8793 37.1453 38.4427 36.852 38.4427ZM36.9873 35.9173C36.7727 35.9173 36.602 36.2 36.602 35.9847C36.602 35.7647 36.7727 35.5927 36.9873 35.5927C37.1987 35.5927 37.3767 35.7647 37.3767 35.9847C37.3767 36.2 37.1993 35.9173 36.9873 35.9173ZM37.9147 37.1113C37.9147 37.0087 37.9554 36.9103 38.028 36.8377C38.1006 36.7651 38.199 36.7243 38.3017 36.7243C38.4043 36.7243 38.5027 36.7651 38.5753 36.8377C38.6479 36.9103 38.6887 37.0087 38.6887 37.1113C38.6887 37.3267 38.518 37.048 38.304 37.048C38.0867 37.048 37.9147 37.3267 37.9147 37.1113ZM38.6587 38.4987C38.444 38.4987 38.268 38.7187 38.268 38.4987C38.268 38.2867 38.444 38.11 38.6587 38.11C38.8713 38.11 39.044 38.2867 39.044 38.4987C39.044 38.7187 38.872 38.4987 38.6587 38.4987Z" fill="#076535"/>
</svg>
