<svg width="122" height="128" viewBox="0 0 122 128" fill="none" xmlns="http://www.w3.org/2000/svg">
<ellipse cx="61" cy="64" rx="61" ry="64" fill="#8BBF38"/>
<path d="M41.936 90V39.6H62.672C67.136 39.6 70.952 40.32 74.12 41.76C77.336 43.2 79.808 45.264 81.536 47.952C83.264 50.64 84.128 53.832 84.128 57.528C84.128 61.224 83.264 64.416 81.536 67.104C79.808 69.744 77.336 71.784 74.12 73.224C70.952 74.616 67.136 75.312 62.672 75.312H47.12L51.296 71.064V90H41.936ZM74.912 90L62.168 71.712H72.176L84.992 90H74.912ZM51.296 72.072L47.12 67.608H62.24C66.368 67.608 69.464 66.72 71.528 64.944C73.64 63.168 74.696 60.696 74.696 57.528C74.696 54.312 73.64 51.84 71.528 50.112C69.464 48.384 66.368 47.52 62.24 47.52H47.12L51.296 42.912V72.072Z" fill="white"/>
</svg>
