<svg width="122" height="128" viewBox="0 0 122 128" fill="none" xmlns="http://www.w3.org/2000/svg">
<ellipse cx="61" cy="64" rx="61" ry="64" fill="#8BBF38"/>
<path d="M61.5793 90.72C57.6433 90.72 54.0193 90.072 50.7073 88.776C47.3953 87.48 44.5153 85.68 42.0673 83.376C39.6193 81.024 37.7233 78.288 36.3793 75.168C35.0353 72 34.3633 68.544 34.3633 64.8C34.3633 61.056 35.0353 57.624 36.3793 54.504C37.7233 51.336 39.6193 48.6 42.0673 46.296C44.5153 43.944 47.3953 42.12 50.7073 40.824C54.0193 39.528 57.6193 38.88 61.5073 38.88C65.4433 38.88 69.0433 39.528 72.3073 40.824C75.6193 42.12 78.4993 43.92 80.9473 46.224C83.3953 48.528 85.2913 51.264 86.6353 54.432C87.9793 57.6 88.6513 61.056 88.6513 64.8C88.6513 68.544 87.9793 72 86.6353 75.168C85.2913 78.336 83.3953 81.072 80.9473 83.376C78.4993 85.68 75.6193 87.48 72.3073 88.776C69.0433 90.072 65.4673 90.72 61.5793 90.72ZM77.9953 101.016C76.2193 101.016 74.4913 100.8 72.8113 100.368C71.1793 99.984 69.5473 99.312 67.9153 98.352C66.3313 97.44 64.6753 96.216 62.9473 94.68C61.2193 93.192 59.3233 91.344 57.2593 89.136L67.1953 86.544C68.5393 88.32 69.8113 89.736 71.0113 90.792C72.2593 91.896 73.4593 92.688 74.6113 93.168C75.7633 93.648 76.9633 93.888 78.2113 93.888C81.5233 93.888 84.4033 92.544 86.8513 89.856L91.1713 95.04C87.8113 99.024 83.4193 101.016 77.9953 101.016ZM61.5073 82.512C64.0513 82.512 66.4033 82.08 68.5633 81.216C70.7233 80.352 72.5953 79.128 74.1793 77.544C75.7633 75.912 76.9873 74.016 77.8513 71.856C78.7633 69.696 79.2193 67.344 79.2193 64.8C79.2193 62.208 78.7633 59.856 77.8513 57.744C76.9873 55.584 75.7633 53.712 74.1793 52.128C72.5953 50.496 70.7233 49.248 68.5633 48.384C66.4033 47.52 64.0513 47.088 61.5073 47.088C58.9633 47.088 56.6113 47.52 54.4513 48.384C52.2913 49.248 50.4193 50.496 48.8353 52.128C47.2513 53.712 46.0033 55.584 45.0913 57.744C44.2273 59.856 43.7953 62.208 43.7953 64.8C43.7953 67.344 44.2273 69.696 45.0913 71.856C46.0033 74.016 47.2513 75.912 48.8353 77.544C50.4193 79.128 52.2913 80.352 54.4513 81.216C56.6113 82.08 58.9633 82.512 61.5073 82.512Z" fill="white"/>
</svg>
