<svg width="122" height="128" viewBox="0 0 122 128" fill="none" xmlns="http://www.w3.org/2000/svg">
<ellipse cx="61" cy="64" rx="61" ry="64" fill="#8BBF38"/>
<path d="M61.5338 90.72C54.6218 90.72 49.1978 88.776 45.2618 84.888C41.3738 81 39.4298 75.384 39.4298 68.04V39.6H48.7898V67.68C48.7898 72.864 49.8938 76.632 52.1017 78.984C54.3578 81.336 57.5258 82.512 61.6058 82.512C65.6858 82.512 68.8298 81.336 71.0378 78.984C73.2458 76.632 74.3498 72.864 74.3498 67.68V39.6H83.5658V68.04C83.5658 75.384 81.5978 81 77.6618 84.888C73.7738 88.776 68.3978 90.72 61.5338 90.72Z" fill="white"/>
</svg>
