<svg width="122" height="128" viewBox="0 0 122 128" fill="none" xmlns="http://www.w3.org/2000/svg">
<ellipse cx="61" cy="64" rx="61" ry="64" fill="#8BBF38"/>
<path d="M61.2514 90.72C57.3154 90.72 53.5474 90.168 49.9474 89.064C46.3474 87.912 43.4914 86.448 41.3794 84.672L44.6194 77.4C46.6354 78.984 49.1314 80.304 52.1074 81.36C55.0834 82.416 58.1314 82.944 61.2514 82.944C63.8914 82.944 66.0274 82.656 67.6594 82.08C69.2914 81.504 70.4914 80.736 71.2594 79.776C72.0274 78.768 72.4114 77.64 72.4114 76.392C72.4114 74.856 71.8594 73.632 70.7554 72.72C69.6514 71.76 68.2114 71.016 66.4354 70.488C64.7074 69.912 62.7634 69.384 60.6034 68.904C58.4914 68.424 56.3554 67.872 54.1954 67.248C52.0834 66.576 50.1394 65.736 48.3634 64.728C46.6354 63.672 45.2194 62.28 44.1154 60.552C43.0114 58.824 42.4594 56.616 42.4594 53.928C42.4594 51.192 43.1794 48.696 44.6194 46.44C46.1074 44.136 48.3394 42.312 51.3154 40.968C54.3394 39.576 58.1554 38.88 62.7634 38.88C65.7874 38.88 68.7874 39.264 71.7634 40.032C74.7394 40.8 77.3314 41.904 79.5394 43.344L76.5874 50.616C74.3314 49.272 72.0034 48.288 69.6034 47.664C67.2034 46.992 64.8994 46.656 62.6914 46.656C60.0994 46.656 57.9874 46.968 56.3554 47.592C54.7714 48.216 53.5954 49.032 52.8274 50.04C52.1074 51.048 51.7474 52.2 51.7474 53.496C51.7474 55.032 52.2754 56.28 53.3314 57.24C54.4354 58.152 55.8514 58.872 57.5794 59.4C59.3554 59.928 61.3234 60.456 63.4834 60.984C65.6434 61.464 67.7794 62.016 69.8914 62.64C72.0514 63.264 73.9954 64.08 75.7234 65.088C77.4994 66.096 78.9154 67.464 79.9714 69.192C81.0754 70.92 81.6274 73.104 81.6274 75.744C81.6274 78.432 80.8834 80.928 79.3954 83.232C77.9554 85.488 75.7234 87.312 72.6994 88.704C69.6754 90.048 65.8594 90.72 61.2514 90.72Z" fill="white"/>
</svg>
