<svg xmlns="http://www.w3.org/2000/svg" xmlns:xlink="http://www.w3.org/1999/xlink" viewBox="0 0 246.05 116.29"><defs><style>.cls-1{fill:url(#linear-gradient);}.cls-2{fill:url(#linear-gradient-2);}.cls-3{fill:url(#linear-gradient-3);}.cls-4{fill:url(#linear-gradient-4);}.cls-5{fill:url(#linear-gradient-5);}.cls-6{fill:url(#linear-gradient-6);}.cls-7{fill:url(#linear-gradient-7);}.cls-8{fill:url(#linear-gradient-8);}.cls-9{fill:url(#linear-gradient-9);}.cls-10{fill:url(#linear-gradient-10);}.cls-11{fill:url(#linear-gradient-11);}.cls-12{fill:url(#linear-gradient-12);}.cls-13{fill:#70cddd;}</style><linearGradient id="linear-gradient" x1="163.24" y1="-3432.01" x2="288.45" y2="-3338.25" gradientTransform="matrix(1, 0, 0, -1, 0, -3311.81)" gradientUnits="userSpaceOnUse"><stop offset="0" stop-color="#70cddd"/><stop offset="1" stop-color="#996bae"/></linearGradient><linearGradient id="linear-gradient-2" x1="158.43" y1="-3425.59" x2="283.65" y2="-3331.83" xlink:href="#linear-gradient"/><linearGradient id="linear-gradient-3" x1="186.4" y1="-3462.95" x2="311.62" y2="-3369.18" xlink:href="#linear-gradient"/><linearGradient id="linear-gradient-4" x1="173.18" y1="-3445.29" x2="298.39" y2="-3351.52" xlink:href="#linear-gradient"/><linearGradient id="linear-gradient-5" x1="169.41" y1="-3363.5" x2="221.24" y2="-3479.55" gradientTransform="matrix(1, 0, 0, -1, 0, -3311.81)" gradientUnits="userSpaceOnUse"><stop offset="0" stop-color="#70cddd"/><stop offset="1" stop-color="#9a94c8"/></linearGradient><linearGradient id="linear-gradient-6" x1="149.83" y1="-3372.24" x2="201.66" y2="-3488.29" xlink:href="#linear-gradient-5"/><linearGradient id="linear-gradient-7" x1="173.34" y1="-3361.74" x2="225.17" y2="-3477.79" xlink:href="#linear-gradient-5"/><linearGradient id="linear-gradient-8" x1="151.69" y1="-3371.41" x2="203.52" y2="-3487.46" xlink:href="#linear-gradient-5"/><linearGradient id="linear-gradient-9" x1="155.21" y1="-3369.84" x2="207.04" y2="-3485.89" xlink:href="#linear-gradient-5"/><linearGradient id="linear-gradient-10" x1="69.66" y1="-3383.62" x2="161.14" y2="-3506.08" xlink:href="#linear-gradient"/><linearGradient id="linear-gradient-11" x1="95.8" y1="-3364.1" x2="187.27" y2="-3486.56" xlink:href="#linear-gradient"/><linearGradient id="linear-gradient-12" x1="68.84" y1="-3384.24" x2="160.31" y2="-3506.7" xlink:href="#linear-gradient"/></defs><g id="Layer_2" data-name="Layer 2"><g id="Layer_1-2" data-name="Layer 1"><path class="cls-1" d="M200.48,49h18.83v72.52H200.48Z" transform="translate(-6.37 -5.23)"/><path class="cls-2" d="M219.14,48.79h33.28V62.92H219.14Z" transform="translate(-6.37 -5.23)"/><path class="cls-3" d="M219.14,107.09h33.28v14.13H219.14Z" transform="translate(-6.37 -5.23)"/><path class="cls-4" d="M219.14,79.53h33.28V93.66H219.14Z" transform="translate(-6.37 -5.23)"/><path class="cls-5" d="M175.16,62.07h18.18V107.8H175.16Z" transform="translate(-6.37 -5.23)"/><path class="cls-6" d="M142.05,5.23h18.18V121.52H142.05Z" transform="translate(-6.37 -5.23)"/><path class="cls-7" d="M158.93,49h34.41V63.37H158.93Z" transform="translate(-6.37 -5.23)"/><path class="cls-8" d="M158.93,107.14h34.41v14.38H158.93Z" transform="translate(-6.37 -5.23)"/><path class="cls-9" d="M159.58,78.4h15.58V92.12H159.58Z" transform="translate(-6.37 -5.23)"/><path class="cls-10" d="M70.45,49.14H88.86v72.08H70.45Z" transform="translate(-6.37 -5.23)"/><path class="cls-11" d="M111.16,49.14h18.41v72.08H111.16Z" transform="translate(-6.37 -5.23)"/><path class="cls-12" d="M88.86,107.09h22.3v14.13H88.86Z" transform="translate(-6.37 -5.23)"/><path class="cls-13" d="M6.37,49.14H24.78v72.08H6.37Z" transform="translate(-6.37 -5.23)"/><path class="cls-13" d="M24.78,49.14H58.06V63.27H24.78Z" transform="translate(-6.37 -5.23)"/><path class="cls-13" d="M24.55,107.14H58.31v14.38H24.55Z" transform="translate(-6.37 -5.23)"/></g></g></svg>