<svg width="24" height="25" viewBox="0 0 24 25" fill="none" xmlns="http://www.w3.org/2000/svg">
<g clip-path="url(#clip0_456_178)">
<path d="M5.25118 13.8256C5.08157 13.9229 4.94164 13.8441 4.9408 13.6511C4.94626 13.5452 4.97701 13.4421 5.03051 13.3503C5.08402 13.2584 5.15877 13.1804 5.24864 13.1226C5.41825 13.0253 5.55903 13.1024 5.55903 13.2979C5.55344 13.4037 5.52263 13.5066 5.46913 13.5983C5.41562 13.69 5.34094 13.7679 5.25118 13.8256Z" fill="#8755A2"/>
<path d="M3.00382 15.2263C2.77739 15.3555 2.59082 15.2515 2.59082 14.9931C2.59819 14.852 2.63923 14.7145 2.71057 14.5921C2.7819 14.4696 2.88152 14.3655 3.00128 14.2884C3.22856 14.1584 3.41428 14.2624 3.41598 14.5216C3.40802 14.6629 3.36655 14.8003 3.29495 14.9227C3.22334 15.0451 3.12361 15.1492 3.00382 15.2263Z" fill="#8755A2"/>
<path d="M0.758153 16.6276C0.474054 16.7895 0.240838 16.6578 0.23999 16.3348C0.249573 16.1583 0.301101 15.9864 0.390394 15.8332C0.479686 15.68 0.604227 15.5498 0.753913 15.4531C1.03801 15.2903 1.27123 15.422 1.27207 15.7467C1.26236 15.9231 1.21077 16.0949 1.12148 16.2479C1.0322 16.401 0.907723 16.531 0.758153 16.6276Z" fill="#8755A2"/>
<path d="M5.21976 3.79938C4.93397 3.96213 4.70245 3.8321 4.7016 3.50911C4.71081 3.33223 4.76226 3.16003 4.85174 3.00663C4.94122 2.85321 5.06618 2.72297 5.21637 2.62656C5.49962 2.46465 5.73284 2.59552 5.73368 2.91934C5.72397 3.09567 5.67238 3.26724 5.58309 3.42014C5.49379 3.57304 5.36932 3.70298 5.21976 3.79938Z" fill="#8755A2"/>
<path d="M2.97245 5.20246C2.63323 5.39709 2.35167 5.24021 2.34998 4.85346C2.36147 4.64118 2.42344 4.43458 2.53087 4.25047C2.6383 4.06635 2.78814 3.90991 2.96821 3.7939C3.30743 3.59843 3.58899 3.75615 3.58983 4.14457C3.57811 4.35647 3.51611 4.56266 3.40885 4.74645C3.3016 4.93023 3.15209 5.08645 2.97245 5.20246Z" fill="#8755A2"/>
<path d="M9.71279 0.99943C9.54318 1.09675 9.40325 1.01789 9.4024 0.824931C9.408 0.718968 9.43887 0.615818 9.49247 0.523945C9.54615 0.432071 9.62103 0.354093 9.7111 0.296408C9.88071 0.199092 10.0206 0.276273 10.0206 0.471743C10.015 0.577486 9.98426 0.68042 9.93074 0.772132C9.87723 0.863843 9.80252 0.941729 9.71279 0.99943Z" fill="#8755A2"/>
<path d="M7.46287 2.40005C7.23474 2.53009 7.04987 2.42354 7.04987 2.16683C7.05739 2.02541 7.09875 1.88778 7.17055 1.76526C7.24236 1.64275 7.34255 1.53886 7.46287 1.46213C7.69015 1.33126 7.87672 1.43613 7.87672 1.69535C7.86863 1.83674 7.82694 1.97424 7.75503 2.09669C7.68313 2.21914 7.58302 2.32307 7.46287 2.40005Z" fill="#8755A2"/>
<path d="M0.725088 6.60325C0.32735 6.8306 0 6.64688 0 6.1947C0 5.74251 0.322261 5.18798 0.72 4.96064C1.11774 4.73329 1.4417 4.91533 1.4417 5.37003C1.4417 5.82473 1.12367 6.37674 0.725088 6.60325Z" fill="#8755A2"/>
<path d="M9.71957 3.56407C9.54996 3.66138 9.41003 3.58252 9.41003 3.38957C9.41546 3.28368 9.44625 3.18058 9.49976 3.08871C9.55327 2.99684 9.62798 2.91882 9.71788 2.86105C9.88749 2.76373 10.0274 2.84259 10.0283 3.03638C10.0222 3.14212 9.99121 3.24498 9.93753 3.33664C9.88393 3.42831 9.80921 3.50621 9.71957 3.56407Z" fill="#8755A2"/>
<path d="M9.71957 6.13342C9.54996 6.2299 9.41003 6.15188 9.41003 5.95809C9.41563 5.85234 9.44642 5.74941 9.49993 5.6577C9.55344 5.56599 9.62815 5.4881 9.71788 5.4304C9.88749 5.33309 10.0274 5.41195 10.0283 5.6049C10.0224 5.71079 9.99138 5.81381 9.93769 5.90563C9.8841 5.99745 9.80938 6.07549 9.71957 6.13342Z" fill="#8755A2"/>
<path d="M0.739491 11.6157C0.400268 11.8103 0.119561 11.6526 0.118713 11.2659C0.129602 11.0539 0.19116 10.8474 0.298336 10.6635C0.405511 10.4796 0.555247 10.3235 0.73525 10.208C1.07447 10.0125 1.35603 10.1702 1.35687 10.5578C1.34502 10.7696 1.28297 10.9759 1.17572 11.1596C1.06847 11.3434 0.91904 11.4996 0.739491 11.6157Z" fill="#8755A2"/>
<path d="M2.98685 10.2139C2.70106 10.3767 2.46954 10.2458 2.46869 9.92367C2.47793 9.74716 2.52932 9.57527 2.61865 9.42216C2.70798 9.26906 2.83271 9.13902 2.98261 9.0428C3.26671 8.88005 3.49993 9.01008 3.50077 9.33391C3.49113 9.51025 3.43956 9.68189 3.35026 9.83475C3.26096 9.98768 3.13646 10.1176 2.98685 10.2139Z" fill="#8755A2"/>
<path d="M2.99619 12.661C2.76976 12.791 2.58404 12.6853 2.58319 12.4269C2.5907 12.2858 2.63179 12.1484 2.70311 12.026C2.77444 11.9035 2.87399 11.7994 2.99365 11.7222C3.22093 11.5914 3.4075 11.6971 3.40835 11.9555C3.40079 12.0969 3.3595 12.2346 3.28787 12.3571C3.21623 12.4798 3.11629 12.5839 2.99619 12.661Z" fill="#8755A2"/>
<path d="M5.24356 11.2594C5.07394 11.3567 4.93401 11.2778 4.93317 11.0849C4.93906 10.979 4.97007 10.876 5.02371 10.7841C5.07734 10.6923 5.15207 10.6143 5.24186 10.5564C5.41147 10.459 5.5514 10.5379 5.55225 10.7317C5.54656 10.8376 5.51562 10.9405 5.46196 11.0322C5.40832 11.124 5.33347 11.2018 5.24356 11.2594Z" fill="#8755A2"/>
<path d="M7.47988 7.41377C7.31027 7.51108 7.17034 7.43222 7.16949 7.23926C7.17522 7.13367 7.20609 7.0309 7.25958 6.93935C7.31308 6.84779 7.38769 6.77003 7.47734 6.71243C7.64695 6.61511 7.78773 6.69228 7.78773 6.88775C7.78213 6.9935 7.75132 7.09644 7.69782 7.18815C7.64431 7.27986 7.56963 7.35774 7.47988 7.41544" fill="#8755A2"/>
<path d="M5.2266 6.36586C4.94166 6.52861 4.71014 6.3969 4.70929 6.07391C4.71874 5.89741 4.77021 5.72562 4.85952 5.57254C4.94884 5.41946 5.07345 5.28942 5.22321 5.19304C5.50731 5.03029 5.73968 5.16116 5.74137 5.48415C5.73156 5.66077 5.67985 5.83263 5.59042 5.98581C5.50099 6.13899 5.37635 6.26918 5.2266 6.36586Z" fill="#8755A2"/>
<path d="M0.750523 14.0611C0.466424 14.2231 0.234057 14.0922 0.232361 13.7692C0.242102 13.5927 0.293794 13.421 0.383237 13.2678C0.47268 13.1148 0.597353 12.9848 0.747131 12.8883C1.03123 12.7264 1.2636 12.8573 1.26445 13.1794C1.2548 13.356 1.20324 13.5278 1.11395 13.681C1.02467 13.8342 0.900164 13.9644 0.750523 14.0611Z" fill="#8755A2"/>
<path d="M7.47306 4.96577C7.24493 5.0958 7.06005 4.99009 7.0592 4.73171C7.06704 4.59077 7.10828 4.45363 7.17958 4.33135C7.25088 4.20909 7.35025 4.10512 7.46966 4.02785C7.69779 3.89781 7.88352 4.00352 7.88436 4.26191C7.87689 4.40327 7.83574 4.54087 7.76425 4.66348C7.69277 4.78609 7.59299 4.89025 7.47306 4.96744" fill="#8755A2"/>
<path d="M2.97923 7.7662C2.64001 7.96083 2.35845 7.80479 2.3576 7.41721C2.36919 7.20539 2.43114 6.99927 2.53842 6.8156C2.64569 6.63192 2.79527 6.47588 2.97499 6.36016C3.31421 6.16469 3.59662 6.32073 3.59746 6.70916C3.58579 6.92105 3.5237 7.12722 3.41628 7.3109C3.30884 7.49458 3.1591 7.65057 2.97923 7.7662Z" fill="#8755A2"/>
<path d="M0.731872 9.16791C0.334133 9.39694 0.00847912 9.21238 0.00763106 8.75935C0.006783 8.30633 0.329893 7.75264 0.727632 7.52529C1.12537 7.29795 1.45102 7.48167 1.45187 7.93385C1.45272 8.38603 1.13131 8.94056 0.731872 9.16791Z" fill="#8755A2"/>
<path d="M5.23337 8.80958C5.00609 8.93962 4.81952 8.83475 4.81952 8.57804C4.82719 8.43668 4.86843 8.29901 4.93989 8.17629C5.01135 8.05357 5.11102 7.94922 5.23083 7.8717C5.45726 7.7425 5.64383 7.84737 5.64468 8.1066C5.63649 8.24743 5.595 8.38441 5.52357 8.50648C5.45213 8.62863 5.35273 8.7324 5.23337 8.80958Z" fill="#8755A2"/>
<path d="M14.4339 3.03095C14.8334 3.25914 15.1582 3.07458 15.159 2.6224C15.1599 2.17021 14.8376 1.61568 14.439 1.38666C14.0404 1.15763 13.7165 1.34387 13.7148 1.79773C13.7131 2.25159 14.0362 2.80444 14.4339 3.03095Z" fill="#4CBD94"/>
<path d="M14.4271 5.46717C14.7664 5.66264 15.0479 5.50492 15.0488 5.11733C15.0374 4.90535 14.9755 4.69904 14.8682 4.5152C14.7609 4.33136 14.6113 4.1752 14.4314 4.05945C14.0922 3.86566 13.8115 4.02086 13.8106 4.40928C13.8221 4.62113 13.8839 4.82733 13.9911 5.01114C14.0982 5.19494 14.2475 5.35117 14.4271 5.46717Z" fill="#4CBD94"/>
<path d="M16.6846 6.75665C17.0239 6.95212 17.3037 6.79356 17.3046 6.40514C17.2935 6.19351 17.232 5.98747 17.125 5.8039C17.0179 5.62032 16.8685 5.46441 16.6889 5.34893C16.3497 5.15346 16.0673 5.3095 16.0664 5.69793C16.0779 5.91008 16.1399 6.11653 16.2474 6.3005C16.3548 6.48448 16.5046 6.64076 16.6846 6.75665Z" fill="#4CBD94"/>
<path d="M16.6702 11.63C16.8983 11.7601 17.0832 11.6544 17.0832 11.396C17.0758 11.255 17.0347 11.1179 16.9636 10.9955C16.8924 10.8732 16.793 10.7693 16.6736 10.6921C16.4455 10.5621 16.2598 10.6669 16.2589 10.9245C16.2665 11.0658 16.3078 11.2033 16.3792 11.326C16.4507 11.4486 16.5504 11.5528 16.6702 11.63Z" fill="#4CBD94"/>
<path d="M12.1781 1.74255C12.5758 1.96906 12.9015 1.78617 12.9023 1.33399C12.9032 0.881812 12.58 0.327282 12.1823 0.0982548C11.7846 -0.130772 11.4589 0.0546303 11.4572 0.50849C11.4555 0.962349 11.7803 1.5152 12.1781 1.74255Z" fill="#4CBD94"/>
<path d="M16.6914 4.32068C17.0892 4.54802 17.4148 4.36346 17.4165 3.91212C17.4182 3.46078 17.0943 2.90541 16.6965 2.67638C16.2988 2.44735 15.9723 2.63276 15.9714 3.08661C15.9706 3.54047 16.2937 4.09333 16.6914 4.32068Z" fill="#4CBD94"/>
<path d="M12.1705 4.17871C12.5097 4.37418 12.7904 4.21646 12.7921 3.82804C12.7808 3.61591 12.7191 3.40943 12.6117 3.22543C12.5045 3.04143 12.3547 2.88514 12.1747 2.76931C11.8355 2.57468 11.5539 2.73072 11.5531 3.1183C11.5646 3.33036 11.6265 3.53674 11.7338 3.72069C11.8411 3.90465 11.9907 4.06099 12.1705 4.17703" fill="#4CBD94"/>
<path d="M18.921 15.3532C19.0906 15.4505 19.2305 15.3733 19.2305 15.1779C19.2249 15.0722 19.1941 14.9692 19.1406 14.8775C19.0871 14.7858 19.0124 14.7079 18.9227 14.6502C18.7531 14.552 18.6123 14.6309 18.6115 14.8238C18.617 14.93 18.6479 15.0334 18.7017 15.1254C18.7555 15.2175 18.8307 15.2956 18.921 15.3532Z" fill="#4CBD94"/>
<path d="M21.2056 6.77951C21.5449 6.97498 21.8247 6.81642 21.8256 6.42884C21.8148 6.2167 21.7533 6.0101 21.6461 5.82605C21.5389 5.642 21.3892 5.48574 21.209 5.37011C20.8698 5.17464 20.5883 5.33236 20.5874 5.71911C20.5989 5.93116 20.6608 6.13752 20.7683 6.32137C20.8757 6.50521 21.0256 6.66133 21.2056 6.77699" fill="#4CBD94"/>
<path d="M21.2014 9.21638C21.4855 9.37829 21.7179 9.2491 21.7196 8.92444C21.7092 8.74767 21.6569 8.57586 21.5668 8.42276C21.4768 8.26975 21.3516 8.13984 21.2014 8.04357C20.9173 7.88166 20.6849 8.01253 20.6841 8.33552C20.6935 8.51202 20.745 8.68383 20.8344 8.83685C20.9237 8.98996 21.0482 9.11999 21.198 9.21638" fill="#4CBD94"/>
<path d="M23.4556 10.3942C23.682 10.5234 23.8686 10.4177 23.8686 10.1593C23.8613 10.0181 23.8204 9.88059 23.7492 9.75794C23.678 9.63538 23.5785 9.5311 23.4589 9.45375C23.2308 9.32455 23.0451 9.42942 23.0443 9.68781C23.0518 9.82925 23.0929 9.96692 23.1644 10.0897C23.2359 10.2125 23.3356 10.3168 23.4556 10.3942Z" fill="#4CBD94"/>
<path d="M23.4496 12.8291C23.6192 12.9264 23.7575 12.8484 23.7583 12.6537C23.7528 12.5481 23.7221 12.4452 23.6688 12.3535C23.6154 12.2618 23.541 12.1839 23.4513 12.1261C23.2817 12.0279 23.1409 12.1076 23.1401 12.3014C23.1458 12.4073 23.177 12.5103 23.2307 12.6021C23.2845 12.6938 23.3596 12.7716 23.4496 12.8291Z" fill="#4CBD94"/>
<path d="M21.1844 14.0899C21.354 14.1873 21.494 14.1101 21.4948 13.9154C21.4887 13.8097 21.4576 13.7067 21.404 13.6149C21.3504 13.5231 21.2758 13.4451 21.1861 13.3869C21.0165 13.2896 20.8766 13.3685 20.8757 13.5623C20.8814 13.6681 20.9124 13.7711 20.9661 13.8628C21.0196 13.9545 21.0945 14.0324 21.1844 14.0899Z" fill="#4CBD94"/>
<path d="M20.7774 16.6505C20.947 16.7478 21.0869 16.6714 21.0878 16.476C21.0815 16.3702 21.0503 16.2673 20.9967 16.1755C20.9431 16.0838 20.8685 16.0057 20.7791 15.9474C20.6095 15.851 20.4695 15.9298 20.4687 16.1228C20.4744 16.2286 20.5053 16.3316 20.559 16.4233C20.6126 16.5151 20.6875 16.5928 20.7774 16.6505Z" fill="#4CBD94"/>
<path d="M22.5032 17.8061C22.6728 17.9034 22.8135 17.8262 22.8135 17.6316C22.8076 17.5257 22.7767 17.4227 22.723 17.3309C22.6694 17.2391 22.5947 17.1611 22.5049 17.1031C22.3352 17.0058 22.1953 17.0855 22.1953 17.2784C22.2009 17.3842 22.2317 17.4871 22.2852 17.5788C22.3387 17.6705 22.4134 17.7485 22.5032 17.8061Z" fill="#4CBD94"/>
<path d="M22.8127 15.0582C22.9823 15.1547 23.1222 15.0783 23.1231 14.8829C23.1169 14.777 23.0855 14.6741 23.0316 14.5824C22.9777 14.4907 22.9027 14.4129 22.8127 14.3552C22.6431 14.2579 22.5032 14.3367 22.5023 14.5305C22.508 14.6364 22.539 14.7393 22.5926 14.8311C22.6462 14.9228 22.7211 15.0007 22.811 15.0582" fill="#4CBD94"/>
<path d="M18.9345 10.4822C19.2186 10.645 19.4493 10.5133 19.451 10.1903C19.442 10.0143 19.3913 9.84279 19.3029 9.68977C19.2146 9.53675 19.0909 9.40646 18.9422 9.3094C18.6564 9.14665 18.4232 9.27668 18.4232 9.60051C18.4327 9.77727 18.4842 9.94925 18.5737 10.1024C18.6632 10.2557 18.7879 10.3858 18.9379 10.4822" fill="#4CBD94"/>
<path d="M23.4632 7.9557C23.7464 8.11845 23.978 7.98758 23.9797 7.66375C23.97 7.4874 23.9185 7.31578 23.8294 7.16276C23.7403 7.00974 23.6159 6.87961 23.4666 6.78288C23.1808 6.62013 22.9484 6.751 22.9476 7.07399C22.9568 7.25084 23.0084 7.423 23.098 7.57629C23.1877 7.72958 23.3128 7.85962 23.4632 7.9557Z" fill="#4CBD94"/>
<path d="M18.9278 12.9205C19.1542 13.0497 19.3399 12.9449 19.3408 12.6856C19.333 12.5448 19.2917 12.4078 19.2204 12.2856C19.1491 12.1635 19.0497 12.0597 18.9303 11.9826C18.7031 11.8526 18.5173 11.9575 18.5165 12.215C18.5241 12.3563 18.5654 12.4939 18.6368 12.6164C18.7083 12.739 18.808 12.8432 18.9278 12.9205Z" fill="#4CBD94"/>
<path d="M18.9422 8.0462C19.2814 8.23999 19.5613 8.08311 19.5621 7.69469C19.5506 7.48306 19.4888 7.27711 19.3817 7.09358C19.2746 6.91004 19.1251 6.75412 18.9456 6.63848C18.6064 6.44301 18.3248 6.59905 18.3248 6.98748C18.3361 7.1996 18.3978 7.40608 18.5052 7.59009C18.6125 7.77408 18.7623 7.93037 18.9422 8.0462Z" fill="#4CBD94"/>
<path d="M18.9481 5.61023C19.3467 5.83674 19.6724 5.65301 19.6732 5.20167C19.6741 4.75033 19.351 4.19496 18.9541 3.96593C18.5572 3.7369 18.2332 3.92231 18.2332 4.37617C18.2332 4.83002 18.5538 5.38288 18.9524 5.61023" fill="#4CBD94"/>
<path d="M21.1912 11.6537C21.4185 11.7838 21.6051 11.6797 21.6059 11.4214C21.5983 11.2798 21.557 11.1421 21.4853 11.0193C21.4137 10.8966 21.3138 10.7923 21.1938 10.715C20.9665 10.5858 20.7799 10.6906 20.7791 10.949C20.7868 11.0903 20.8281 11.2278 20.8997 11.3503C20.9714 11.4728 21.0712 11.5767 21.1912 11.6537Z" fill="#4CBD94"/>
<path d="M15.8154 18.5983C15.6241 18.6943 15.4126 18.7443 15.198 18.7443C14.9835 18.7443 14.772 18.6943 14.5806 18.5983C14.2414 18.4029 14.2414 18.0858 14.5806 17.8911C14.7718 17.7946 14.9834 17.7441 15.198 17.7441C15.4127 17.7441 15.6243 17.7946 15.8154 17.8911C16.1546 18.0858 16.1546 18.4037 15.8154 18.5983Z" fill="#EE214B"/>
<path d="M15.6891 21.1115C15.5296 21.1913 15.3534 21.2329 15.1747 21.2329C14.996 21.2329 14.8198 21.1913 14.6604 21.1115C14.3788 20.9487 14.3797 20.6845 14.6604 20.5242C14.8198 20.4444 14.996 20.4028 15.1747 20.4028C15.3534 20.4028 15.5296 20.4444 15.6891 20.5242C15.9706 20.687 15.9698 20.9512 15.6891 21.1115Z" fill="#EE214B"/>
<path d="M13.5596 19.8835C13.3682 19.9796 13.1567 20.0298 12.9422 20.0298C12.7276 20.0298 12.5161 19.9796 12.3248 19.8835C11.9856 19.688 11.9856 19.3717 12.3248 19.1762C12.5159 19.0803 12.7271 19.0303 12.9413 19.0303C13.1555 19.0303 13.3668 19.0803 13.5579 19.1762C13.8971 19.3717 13.8971 19.6888 13.5579 19.8835" fill="#EE214B"/>
<path d="M17.9449 19.8231C17.7856 19.9029 17.6096 19.9446 17.431 19.9446C17.2524 19.9446 17.0763 19.9029 16.917 19.8231C16.6346 19.6603 16.6363 19.3961 16.917 19.2358C17.0765 19.1556 17.2529 19.1138 17.4318 19.1138C17.6107 19.1138 17.7871 19.1556 17.9466 19.2358C18.2281 19.3986 18.2273 19.6637 17.9415 19.8231" fill="#EE214B"/>
<path d="M17.8185 22.3358C17.691 22.3999 17.5502 22.4334 17.4072 22.4334C17.2642 22.4334 17.1234 22.3999 16.9959 22.3358C16.7703 22.2058 16.7712 21.9944 16.9959 21.8635C17.1236 21.7998 17.2646 21.7666 17.4076 21.7666C17.5506 21.7666 17.6916 21.7998 17.8194 21.8635C18.0458 21.9944 18.0424 22.2049 17.8194 22.335" fill="#EE214B"/>
<path d="M22.3319 19.7584C22.2044 19.8225 22.0636 19.856 21.9206 19.856C21.7776 19.856 21.6367 19.8225 21.5093 19.7584C21.2837 19.6284 21.2845 19.417 21.5093 19.2869C21.6368 19.2228 21.7779 19.1895 21.921 19.1895C22.0641 19.1895 22.2052 19.2228 22.3327 19.2869C22.5592 19.417 22.5566 19.6284 22.3285 19.7584" fill="#EE214B"/>
<path d="M20.2024 18.5338C20.043 18.6137 19.8668 18.6553 19.6881 18.6553C19.5094 18.6553 19.3332 18.6137 19.1737 18.5338C18.8922 18.3719 18.893 18.1068 19.1737 17.9466C19.3332 17.8668 19.5094 17.8252 19.6881 17.8252C19.8668 17.8252 20.043 17.8668 20.2024 17.9466C20.484 18.1093 20.4831 18.3744 20.2024 18.5338Z" fill="#EE214B"/>
<path d="M20.0744 21.047C19.9472 21.1111 19.8065 21.1445 19.6639 21.1445C19.5213 21.1445 19.3806 21.1111 19.2534 21.047C19.027 20.917 19.027 20.7064 19.2534 20.5755C19.381 20.5114 19.5221 20.478 19.6652 20.478C19.8082 20.478 19.9494 20.5114 20.0769 20.5755C20.3033 20.7064 20.3008 20.917 20.0769 21.047" fill="#EE214B"/>
<path d="M11.4301 18.6627C11.0307 18.8909 10.3845 18.89 9.98844 18.6627C9.5924 18.4353 9.5924 18.0645 9.98844 17.8364C10.3845 17.6082 11.0332 17.609 11.4301 17.8364C11.827 18.0637 11.8228 18.4345 11.4259 18.6619" fill="#EE214B"/>
<path d="M18.0729 17.3096C17.8816 17.4056 17.6701 17.4556 17.4555 17.4556C17.241 17.4556 17.0295 17.4056 16.8382 17.3096C16.4989 17.1142 16.4989 16.7979 16.8382 16.6024C17.0292 16.5065 17.2405 16.4565 17.4547 16.4565C17.6689 16.4565 17.8802 16.5065 18.0712 16.6024C18.4105 16.7979 18.4105 17.115 18.0712 17.3105" fill="#EE214B"/>
<path d="M6.81244 21.1811C6.62151 21.2775 6.41023 21.3277 6.1959 21.3277C5.98158 21.3277 5.77029 21.2775 5.57937 21.1811C5.24015 20.9856 5.24015 20.6693 5.57937 20.4739C5.7704 20.3774 5.98184 20.3271 6.19633 20.3271C6.41082 20.3271 6.62225 20.3774 6.81329 20.4739C7.15251 20.6685 7.15251 20.9848 6.81329 21.1803" fill="#EE214B"/>
<path d="M8.94192 22.4055C8.78282 22.4861 8.60668 22.5282 8.42799 22.5282C8.24928 22.5282 8.07313 22.4861 7.91407 22.4055C7.63167 22.2436 7.63167 21.9793 7.91407 21.8183C8.07325 21.7381 8.24935 21.6963 8.42799 21.6963C8.6066 21.6963 8.78274 21.7381 8.94192 21.8183C9.22602 21.981 9.22262 22.2453 8.94192 22.4055Z" fill="#EE214B"/>
<path d="M13.2034 24.8548C13.1079 24.903 13.0023 24.9281 12.8951 24.9281C12.7879 24.9281 12.6824 24.903 12.5869 24.8548C12.4173 24.7566 12.4173 24.5989 12.5869 24.5007C12.6824 24.4525 12.7882 24.4272 12.8956 24.4272C13.0029 24.4272 13.1087 24.4525 13.2042 24.5007C13.3739 24.5981 13.3739 24.7574 13.2042 24.8539" fill="#EE214B"/>
<path d="M4.68297 19.9573C4.28354 20.1846 3.63817 20.1846 3.24128 19.9573C2.84438 19.7299 2.84693 19.36 3.24636 19.1318C3.6458 18.9036 4.29202 18.9044 4.68806 19.1318C5.0841 19.3591 5.08156 19.7299 4.68382 19.9573" fill="#EE214B"/>
<path d="M13.4315 22.4004C13.2721 22.4802 13.0958 22.5219 12.9172 22.5219C12.7385 22.5219 12.5622 22.4802 12.4028 22.4004C12.1212 22.2376 12.1221 21.9734 12.4028 21.8131C12.5622 21.7331 12.7384 21.6914 12.9172 21.6914C13.0959 21.6914 13.2721 21.7331 13.4315 21.8131C13.7131 21.9759 13.7131 22.2401 13.4315 22.4004Z" fill="#EE214B"/>
<path d="M15.5618 23.6251C15.4345 23.6892 15.2938 23.7226 15.151 23.7226C15.0081 23.7226 14.8674 23.6892 14.7401 23.6251C14.5136 23.4951 14.5136 23.2837 14.7401 23.1536C14.8678 23.0895 15.009 23.0562 15.1522 23.0562C15.2955 23.0562 15.4367 23.0895 15.5644 23.1536C15.79 23.2837 15.7874 23.4951 15.5601 23.6251" fill="#EE214B"/>
<path d="M11.3021 21.1773C11.1108 21.2733 10.8992 21.3233 10.6847 21.3233C10.4701 21.3233 10.2586 21.2733 10.0673 21.1773C9.72808 20.9827 9.72808 20.6656 10.0715 20.4709C10.2629 20.3748 10.4744 20.3247 10.6889 20.3247C10.9035 20.3247 11.115 20.3748 11.3063 20.4709C11.6455 20.6664 11.6455 20.9844 11.3063 21.1798" fill="#EE214B"/>
<path d="M9.17176 19.9524C8.77402 20.1789 8.12695 20.1789 7.73006 19.9524C7.33317 19.7259 7.33572 19.3534 7.73006 19.1261C8.12441 18.8987 8.77487 18.8987 9.17176 19.1261C9.56865 19.3534 9.56611 19.7234 9.16667 19.9516" fill="#EE214B"/>
<path d="M11.0731 23.63C10.9456 23.6945 10.8045 23.7281 10.6614 23.7281C10.5182 23.7281 10.3771 23.6945 10.2496 23.63C10.0232 23.5 10.0249 23.2886 10.2496 23.1585C10.3773 23.0944 10.5186 23.061 10.6618 23.061C10.805 23.061 10.9462 23.0944 11.0739 23.1585C11.3004 23.2886 11.2987 23.5 11.0739 23.63" fill="#EE214B"/>
<path d="M9.2998 17.439C8.8444 17.6991 8.10489 17.6991 7.65203 17.439C7.19917 17.1789 7.20171 16.7544 7.65712 16.4944C8.11252 16.2343 8.85288 16.2343 9.30489 16.4944C9.7569 16.7544 9.75521 17.1789 9.2998 17.439Z" fill="#EE214B"/>
<path d="M6.96511 16.0956C6.56567 16.3238 5.91945 16.323 5.52341 16.0956C5.12737 15.8683 5.12906 15.4975 5.52765 15.2701C5.92624 15.0428 6.5733 15.0428 6.96935 15.2701C7.36539 15.4975 7.36369 15.8691 6.96935 16.0956" fill="#EE214B"/>
<path d="M4.70754 17.386C4.3098 17.6125 3.66189 17.6125 3.26585 17.386C2.8698 17.1595 2.87235 16.7878 3.27093 16.5613C3.66952 16.3348 4.31574 16.334 4.71263 16.5613C5.10952 16.7887 5.10867 17.1595 4.71263 17.3877" fill="#EE214B"/>
<path d="M7.03885 18.7274C6.58344 18.9883 5.84478 18.9866 5.39277 18.7274C4.94076 18.4681 4.9416 18.0445 5.39277 17.7844C5.84394 17.5243 6.58768 17.5243 7.0397 17.7844C7.49171 18.0445 7.49001 18.469 7.03461 18.7282" fill="#EE214B"/>
<path d="M2.55352 18.7322C2.09811 18.9923 1.35776 18.9923 0.905748 18.7322C0.453735 18.4722 0.457127 18.0494 0.912532 17.7893C1.36794 17.5292 2.1049 17.5292 2.55776 17.7893C3.01062 18.0494 3.00893 18.4722 2.55352 18.7322Z" fill="#EE214B"/>
<path d="M15.561 13.1812C15.511 13.1562 15.4558 13.1432 15.3998 13.1432C15.3439 13.1432 15.2887 13.1562 15.2387 13.1812L12.9753 14.4605C12.9251 14.4854 12.8698 14.4983 12.8137 14.4983C12.7576 14.4983 12.7024 14.4854 12.6521 14.4605L10.4065 13.1635C10.3599 13.1329 10.3212 13.092 10.2935 13.0439C10.2658 12.9958 10.2499 12.942 10.2471 12.8867L10.2598 10.3078C10.2633 10.2525 10.2798 10.1987 10.3081 10.1508C10.3364 10.1028 10.3756 10.0621 10.4226 10.0318L12.6852 8.75079C12.7352 8.72579 12.7904 8.7127 12.8464 8.7127C12.9023 8.7127 12.9575 8.72579 13.0075 8.75079L15.254 10.0469C15.3039 10.072 15.3591 10.0851 15.4151 10.0851C15.4711 10.0851 15.5263 10.072 15.5762 10.0469L17.9788 8.6929C17.998 8.68627 18.0147 8.67386 18.0265 8.65742C18.0383 8.64089 18.0447 8.62126 18.0447 8.60104C18.0447 8.58091 18.0383 8.56119 18.0265 8.54475C18.0147 8.52831 17.998 8.51589 17.9788 8.50918L13.0202 5.64846C12.9703 5.62341 12.915 5.61035 12.8591 5.61035C12.8031 5.61035 12.7479 5.62341 12.6979 5.64846L7.7173 8.46891C7.66904 8.49827 7.6285 8.53846 7.59901 8.58636C7.56953 8.63418 7.55194 8.6882 7.54769 8.74408L7.51886 14.4253C7.52155 14.4808 7.53747 14.5349 7.56532 14.5832C7.59318 14.6314 7.63219 14.6725 7.67914 14.703L12.6369 17.5629C12.6868 17.5879 12.742 17.6009 12.798 17.6009C12.854 17.6009 12.9092 17.5879 12.9591 17.5629L17.944 14.7407C17.9633 14.7341 17.98 14.7217 17.9918 14.7052C18.0036 14.6887 18.0099 14.6691 18.0099 14.6489C18.0099 14.6287 18.0036 14.609 17.9918 14.5926C17.98 14.5761 17.9633 14.5637 17.944 14.557L15.561 13.1812Z" stroke="#00BAD5" stroke-width="1.5" stroke-linecap="round" stroke-linejoin="round"/>
<path d="M15.561 13.1812C15.511 13.1562 15.4558 13.1432 15.3998 13.1432C15.3439 13.1432 15.2887 13.1562 15.2387 13.1812L12.9753 14.4605C12.9251 14.4854 12.8698 14.4983 12.8137 14.4983C12.7576 14.4983 12.7024 14.4854 12.6521 14.4605L10.4065 13.1635C10.3599 13.1329 10.3212 13.092 10.2935 13.0439C10.2658 12.9958 10.2499 12.942 10.2471 12.8867L10.2598 10.3078C10.2633 10.2525 10.2798 10.1987 10.3081 10.1508C10.3364 10.1028 10.3756 10.0621 10.4226 10.0318L12.6852 8.75079C12.7352 8.72579 12.7904 8.7127 12.8464 8.7127C12.9023 8.7127 12.9575 8.72579 13.0075 8.75079L15.254 10.0469C15.3039 10.072 15.3591 10.0851 15.4151 10.0851C15.4711 10.0851 15.5263 10.072 15.5762 10.0469L17.9788 8.6929C17.998 8.68627 18.0147 8.67386 18.0265 8.65742C18.0383 8.64089 18.0447 8.62126 18.0447 8.60104C18.0447 8.58091 18.0383 8.56119 18.0265 8.54475C18.0147 8.52831 17.998 8.51589 17.9788 8.50918L13.0202 5.64846C12.9703 5.62341 12.915 5.61035 12.8591 5.61035C12.8031 5.61035 12.7479 5.62341 12.6979 5.64846L7.7173 8.46891C7.66904 8.49827 7.6285 8.53846 7.59901 8.58636C7.56953 8.63418 7.55194 8.6882 7.54769 8.74408L7.51886 14.4253C7.52155 14.4808 7.53747 14.5349 7.56532 14.5832C7.59318 14.6314 7.63219 14.6725 7.67914 14.703L12.6369 17.5629C12.6868 17.5879 12.742 17.6009 12.798 17.6009C12.854 17.6009 12.9092 17.5879 12.9591 17.5629L17.944 14.7407C17.9633 14.7341 17.98 14.7217 17.9918 14.7052C18.0036 14.6887 18.0099 14.6691 18.0099 14.6489C18.0099 14.6287 18.0036 14.609 17.9918 14.5926C17.98 14.5761 17.9633 14.5637 17.944 14.557L15.561 13.1812Z" stroke="#58C7DD" stroke-linecap="round" stroke-linejoin="round"/>
<path d="M15.561 13.1812C15.511 13.1562 15.4558 13.1432 15.3998 13.1432C15.3439 13.1432 15.2887 13.1562 15.2387 13.1812L12.9753 14.4605C12.9251 14.4854 12.8698 14.4983 12.8137 14.4983C12.7576 14.4983 12.7024 14.4854 12.6521 14.4605L10.4065 13.1635C10.3599 13.1329 10.3212 13.092 10.2935 13.0439C10.2658 12.9958 10.2499 12.942 10.2471 12.8867L10.2598 10.3078C10.2633 10.2525 10.2798 10.1987 10.3081 10.1508C10.3364 10.1028 10.3756 10.0621 10.4226 10.0318L12.6852 8.75079C12.7352 8.72579 12.7904 8.7127 12.8464 8.7127C12.9023 8.7127 12.9575 8.72579 13.0075 8.75079L15.254 10.0469C15.3039 10.072 15.3591 10.0851 15.4151 10.0851C15.4711 10.0851 15.5263 10.072 15.5762 10.0469L17.9788 8.6929C17.998 8.68627 18.0147 8.67386 18.0265 8.65742C18.0383 8.64089 18.0447 8.62126 18.0447 8.60104C18.0447 8.58091 18.0383 8.56119 18.0265 8.54475C18.0147 8.52831 17.998 8.51589 17.9788 8.50918L13.0202 5.64846C12.9703 5.62341 12.915 5.61035 12.8591 5.61035C12.8031 5.61035 12.7479 5.62341 12.6979 5.64846L7.7173 8.46891C7.66904 8.49827 7.6285 8.53846 7.59901 8.58636C7.56953 8.63418 7.55194 8.6882 7.54769 8.74408L7.51886 14.4253C7.52155 14.4808 7.53747 14.5349 7.56532 14.5832C7.59318 14.6314 7.63219 14.6725 7.67914 14.703L12.6369 17.5629C12.6868 17.5879 12.742 17.6009 12.798 17.6009C12.854 17.6009 12.9092 17.5879 12.9591 17.5629L17.944 14.7407C17.9633 14.7341 17.98 14.7217 17.9918 14.7052C18.0036 14.6887 18.0099 14.6691 18.0099 14.6489C18.0099 14.6287 18.0036 14.609 17.9918 14.5926C17.98 14.5761 17.9633 14.5637 17.944 14.557L15.561 13.1812Z" stroke="#C3E7F0" stroke-width="0.5" stroke-linecap="round" stroke-linejoin="round"/>
</g>
<defs>
<clipPath id="clip0_456_178">
<rect width="24" height="25" fill="white"/>
</clipPath>
</defs>
</svg>
