<svg xmlns="http://www.w3.org/2000/svg" xmlns:xlink="http://www.w3.org/1999/xlink" viewBox="0 0 593.84 297.13"><defs><style>.cls-1{fill:#8755a2;}.cls-2{fill:#4cbd94;}.cls-3{fill:#ee214b;}.cls-10,.cls-4,.cls-5,.cls-6,.cls-7,.cls-8,.cls-9{fill:none;stroke-linecap:round;stroke-linejoin:round;}.cls-4{stroke:#7ed1e2;stroke-width:11px;opacity:0.2;}.cls-5{stroke:#64cade;stroke-width:10px;opacity:0.25;}.cls-6,.cls-7{stroke:#00bad5;}.cls-6{stroke-width:7px;opacity:0.3;}.cls-7{stroke-width:6px;}.cls-8{stroke:#58c7dd;stroke-width:3px;}.cls-9{stroke:#8fd6e5;stroke-width:1.25px;}.cls-10{stroke:#c3e7f0;stroke-width:0.5px;}.cls-11{font-size:16.35px;fill:#231f20;font-family:AristotelicaTextTrial-DemiBold, Aristotelica Text Trial;font-weight:300;letter-spacing:-0.01em;}.cls-12{letter-spacing:-0.02em;}.cls-13{letter-spacing:-0.01em;}.cls-14{letter-spacing:-0.01em;}.cls-15{letter-spacing:-0.11em;}.cls-16{letter-spacing:-0.07em;}.cls-17{letter-spacing:-0.01em;}.cls-18{fill:url(#linear-gradient);}.cls-19{fill:url(#linear-gradient-2);}.cls-20{fill:url(#linear-gradient-3);}.cls-21{fill:url(#linear-gradient-4);}.cls-22{fill:url(#linear-gradient-5);}.cls-23{fill:url(#linear-gradient-6);}.cls-24{fill:url(#linear-gradient-7);}.cls-25{fill:url(#linear-gradient-8);}.cls-26{fill:url(#linear-gradient-9);}.cls-27{fill:url(#linear-gradient-10);}.cls-28{fill:url(#linear-gradient-11);}.cls-29{fill:url(#linear-gradient-12);}.cls-30{fill:#70cddd;}</style><linearGradient id="linear-gradient" x1="502.1" y1="-3349.75" x2="627.32" y2="-3255.99" gradientTransform="matrix(1, 0, 0, -1, 0, -3156.82)" gradientUnits="userSpaceOnUse"><stop offset="0" stop-color="#70cddd"/><stop offset="1" stop-color="#996bae"/></linearGradient><linearGradient id="linear-gradient-2" x1="497.3" y1="-3343.33" x2="622.51" y2="-3249.57" xlink:href="#linear-gradient"/><linearGradient id="linear-gradient-3" x1="525.27" y1="-3380.69" x2="650.49" y2="-3286.93" xlink:href="#linear-gradient"/><linearGradient id="linear-gradient-4" x1="512.05" y1="-3363.03" x2="637.26" y2="-3269.27" xlink:href="#linear-gradient"/><linearGradient id="linear-gradient-5" x1="508.27" y1="-3281.24" x2="560.1" y2="-3397.29" gradientTransform="matrix(1, 0, 0, -1, 0, -3156.82)" gradientUnits="userSpaceOnUse"><stop offset="0" stop-color="#70cddd"/><stop offset="1" stop-color="#9a94c8"/></linearGradient><linearGradient id="linear-gradient-6" x1="488.7" y1="-3289.99" x2="540.53" y2="-3406.03" xlink:href="#linear-gradient-5"/><linearGradient id="linear-gradient-7" x1="512.21" y1="-3279.48" x2="564.04" y2="-3395.53" xlink:href="#linear-gradient-5"/><linearGradient id="linear-gradient-8" x1="490.56" y1="-3289.15" x2="542.39" y2="-3405.2" xlink:href="#linear-gradient-5"/><linearGradient id="linear-gradient-9" x1="494.08" y1="-3287.58" x2="545.91" y2="-3403.63" xlink:href="#linear-gradient-5"/><linearGradient id="linear-gradient-10" x1="408.53" y1="-3301.37" x2="500.01" y2="-3423.82" xlink:href="#linear-gradient"/><linearGradient id="linear-gradient-11" x1="434.66" y1="-3281.85" x2="526.14" y2="-3404.3" xlink:href="#linear-gradient"/><linearGradient id="linear-gradient-12" x1="407.71" y1="-3301.98" x2="499.18" y2="-3424.44" xlink:href="#linear-gradient"/></defs><g id="Layer_2" data-name="Layer 2"><g id="Layer_1-2" data-name="Layer 1"><path class="cls-1" d="M61.92,164.79c-2,1.16-3.65.22-3.66-2.08a8,8,0,0,1,3.63-6.3c2-1.16,3.66-.24,3.66,2.09a8,8,0,0,1-3.63,6.29"/><path class="cls-1" d="M35.42,181.49c-2.67,1.54-4.87.3-4.87-2.78a10.68,10.68,0,0,1,4.84-8.4c2.68-1.55,4.87-.31,4.89,2.78a10.74,10.74,0,0,1-4.86,8.4"/><path class="cls-1" d="M8.94,198.19c-3.35,1.93-6.1.36-6.11-3.49a13.41,13.41,0,0,1,6.06-10.51c3.35-1.94,6.1-.37,6.11,3.5a13.41,13.41,0,0,1-6.06,10.5"/><path class="cls-1" d="M61.55,45.28c-3.37,1.94-6.1.39-6.11-3.46A13.36,13.36,0,0,1,61.51,31.3c3.34-1.93,6.09-.37,6.1,3.49a13.39,13.39,0,0,1-6.06,10.49"/><path class="cls-1" d="M35.05,62c-4,2.32-7.32.45-7.34-4.16A16.1,16.1,0,0,1,35,45.21c4-2.33,7.32-.45,7.33,4.18A16.11,16.11,0,0,1,35.05,62"/><path class="cls-1" d="M114.53,11.9c-2,1.16-3.65.22-3.66-2.08a8,8,0,0,1,3.64-6.3c2-1.16,3.65-.24,3.65,2.09a8,8,0,0,1-3.63,6.29"/><path class="cls-1" d="M88,28.6c-2.69,1.55-4.87.28-4.87-2.78A10.66,10.66,0,0,1,88,17.42c2.68-1.56,4.88-.31,4.88,2.78A10.73,10.73,0,0,1,88,28.6"/><path class="cls-1" d="M8.55,78.7C3.86,81.41,0,79.22,0,73.83s3.8-12,8.49-14.71S17,58.58,17,64,13.25,76,8.55,78.7"/><path class="cls-1" d="M114.61,42.47c-2,1.16-3.65.22-3.65-2.08a8,8,0,0,1,3.63-6.3c2-1.16,3.65-.22,3.66,2.09a8.05,8.05,0,0,1-3.64,6.29"/><path class="cls-1" d="M114.61,73.1c-2,1.15-3.65.22-3.65-2.09a8,8,0,0,1,3.63-6.29c2-1.16,3.65-.22,3.66,2.08a8.05,8.05,0,0,1-3.64,6.3"/><path class="cls-1" d="M8.72,138.45c-4,2.32-7.31.44-7.32-4.17a16,16,0,0,1,7.27-12.61c4-2.33,7.32-.45,7.33,4.17a16.13,16.13,0,0,1-7.28,12.61"/><path class="cls-1" d="M35.22,121.74c-3.37,1.94-6.1.38-6.11-3.46a13.34,13.34,0,0,1,6.06-10.5c3.35-1.94,6.1-.39,6.11,3.47a13.38,13.38,0,0,1-6.06,10.49"/><path class="cls-1" d="M35.33,150.91c-2.67,1.55-4.86.29-4.87-2.79a10.7,10.7,0,0,1,4.84-8.4c2.68-1.56,4.88-.3,4.89,2.78a10.7,10.7,0,0,1-4.86,8.41"/><path class="cls-1" d="M61.83,134.2c-2,1.16-3.65.22-3.66-2.08a8.05,8.05,0,0,1,3.64-6.3c2-1.16,3.65-.22,3.66,2.09a8,8,0,0,1-3.64,6.29"/><path class="cls-1" d="M88.2,88.36c-2,1.16-3.65.22-3.66-2.08A8,8,0,0,1,88.17,80c2-1.16,3.66-.24,3.66,2.09a8,8,0,0,1-3.63,6.29"/><path class="cls-1" d="M61.63,75.87c-3.36,1.94-6.09.37-6.1-3.48a13.37,13.37,0,0,1,6.06-10.5c3.35-1.94,6.09-.38,6.11,3.47a13.43,13.43,0,0,1-6.07,10.51"/><path class="cls-1" d="M8.85,167.6c-3.35,1.93-6.09.37-6.11-3.48a13.4,13.4,0,0,1,6.07-10.5c3.35-1.93,6.09-.37,6.1,3.47A13.42,13.42,0,0,1,8.85,167.6"/><path class="cls-1" d="M88.12,59.18c-2.69,1.55-4.87.29-4.88-2.79A10.73,10.73,0,0,1,88.08,48c2.69-1.55,4.88-.29,4.89,2.79a10.7,10.7,0,0,1-4.85,8.41"/><path class="cls-1" d="M35.13,92.56c-4,2.32-7.32.46-7.33-4.16a16.07,16.07,0,0,1,7.28-12.6c4-2.33,7.33-.47,7.34,4.16a16.07,16.07,0,0,1-7.29,12.6"/><path class="cls-1" d="M8.63,109.27C3.94,112,.1,109.8.09,104.4s3.8-12,8.49-14.71,8.53-.52,8.54,4.87-3.78,12-8.49,14.71"/><path class="cls-1" d="M61.71,105c-2.68,1.55-4.88.3-4.88-2.76a10.75,10.75,0,0,1,4.85-8.42c2.67-1.54,4.87-.29,4.88,2.8A10.75,10.75,0,0,1,61.71,105"/><path class="cls-2" d="M170.2,36.12c4.71,2.72,8.54.52,8.55-4.87s-3.79-12-8.49-14.73-8.52-.51-8.54,4.9,3.79,12,8.48,14.7"/><path class="cls-2" d="M170.12,65.16c4,2.33,7.32.45,7.33-4.17a16.06,16.06,0,0,0-7.28-12.61c-4-2.31-7.31-.46-7.32,4.17a16.09,16.09,0,0,0,7.27,12.61"/><path class="cls-2" d="M196.74,80.53c4,2.33,7.3.44,7.31-4.19a16,16,0,0,0-7.26-12.59c-4-2.33-7.33-.47-7.34,4.16a16.09,16.09,0,0,0,7.29,12.62"/><path class="cls-2" d="M196.57,138.62c2.69,1.55,4.87.29,4.87-2.79a10.69,10.69,0,0,0-4.83-8.39c-2.69-1.55-4.88-.3-4.89,2.77a10.72,10.72,0,0,0,4.85,8.41"/><path class="cls-2" d="M143.6,20.76c4.69,2.7,8.53.52,8.54-4.87s-3.8-12-8.49-14.73-8.53-.52-8.55,4.89,3.81,12,8.5,14.71"/><path class="cls-2" d="M196.82,51.49c4.69,2.71,8.53.51,8.55-4.87s-3.8-12-8.49-14.73-8.54-.52-8.55,4.89,3.8,12,8.49,14.71"/><path class="cls-2" d="M143.51,49.8c4,2.33,7.31.45,7.33-4.18A16.06,16.06,0,0,0,143.56,33c-4-2.32-7.32-.46-7.33,4.16a16.1,16.1,0,0,0,7.28,12.62"/><path class="cls-2" d="M223.11,183c2,1.16,3.65.24,3.65-2.09a8,8,0,0,0-3.63-6.29c-2-1.17-3.66-.23-3.67,2.07a8,8,0,0,0,3.65,6.31"/><path class="cls-2" d="M250.05,80.8c4,2.33,7.3.44,7.31-4.18A16,16,0,0,0,250.09,64c-4-2.33-7.32-.45-7.33,4.16a16.06,16.06,0,0,0,7.29,12.61"/><path class="cls-2" d="M250,109.85c3.35,1.93,6.09.39,6.11-3.48A13.44,13.44,0,0,0,250,95.87c-3.35-1.93-6.09-.37-6.1,3.48a13.37,13.37,0,0,0,6.06,10.5"/><path class="cls-2" d="M276.58,123.89c2.67,1.54,4.87.28,4.87-2.8a10.7,10.7,0,0,0-4.83-8.41c-2.69-1.54-4.88-.29-4.89,2.79a10.73,10.73,0,0,0,4.85,8.42"/><path class="cls-2" d="M276.51,152.91c2,1.16,3.63.23,3.64-2.09a8,8,0,0,0-3.62-6.29c-2-1.17-3.66-.22-3.67,2.09a8,8,0,0,0,3.65,6.29"/><path class="cls-2" d="M249.8,167.94c2,1.16,3.65.24,3.66-2.08a8.08,8.08,0,0,0-3.64-6.3c-2-1.16-3.65-.22-3.66,2.09a8,8,0,0,0,3.64,6.29"/><path class="cls-2" d="M245,198.46c2,1.16,3.65.25,3.66-2.08a8.11,8.11,0,0,0-3.64-6.3c-2-1.15-3.65-.21-3.66,2.09a8,8,0,0,0,3.64,6.29"/><path class="cls-2" d="M265.35,212.24c2,1.16,3.66.24,3.66-2.08a8.05,8.05,0,0,0-3.64-6.3c-2-1.16-3.65-.21-3.65,2.09a8,8,0,0,0,3.63,6.29"/><path class="cls-2" d="M269,179.48c2,1.15,3.65.24,3.66-2.09A8.05,8.05,0,0,0,269,171.1c-2-1.16-3.65-.22-3.66,2.09a8,8,0,0,0,3.64,6.29"/><path class="cls-2" d="M223.27,124.94c3.35,1.94,6.07.37,6.09-3.48a13.38,13.38,0,0,0-6-10.5c-3.37-1.94-6.12-.39-6.12,3.47a13.38,13.38,0,0,0,6.07,10.51"/><path class="cls-2" d="M276.67,94.82c3.34,1.94,6.07.38,6.09-3.48a13.42,13.42,0,0,0-6.05-10.5c-3.37-1.94-6.11-.38-6.12,3.47a13.33,13.33,0,0,0,6.08,10.51"/><path class="cls-2" d="M223.19,154c2.67,1.54,4.86.29,4.87-2.8a10.71,10.71,0,0,0-4.84-8.38c-2.68-1.55-4.87-.3-4.88,2.77a10.73,10.73,0,0,0,4.85,8.41"/><path class="cls-2" d="M223.36,95.9c4,2.31,7.3.44,7.31-4.19a16.05,16.05,0,0,0-7.27-12.59c-4-2.33-7.32-.47-7.32,4.16a16.06,16.06,0,0,0,7.28,12.62"/><path class="cls-2" d="M223.43,66.86c4.7,2.7,8.54.51,8.55-4.87s-3.8-12-8.48-14.73S215,46.74,215,52.15s3.78,12,8.48,14.71"/><path class="cls-2" d="M249.88,138.9c2.68,1.55,4.88.31,4.89-2.77a10.73,10.73,0,0,0-4.86-8.42c-2.68-1.54-4.88-.29-4.89,2.79a10.7,10.7,0,0,0,4.86,8.4"/><path class="cls-3" d="M186.49,221.68a16.1,16.1,0,0,1-14.56,0c-4-2.33-4-6.11,0-8.43a16,16,0,0,1,14.56,0c4,2.32,4,6.11,0,8.43"/><path class="cls-3" d="M185,251.64a13.43,13.43,0,0,1-12.13,0c-3.32-1.94-3.31-5.09,0-7a13.43,13.43,0,0,1,12.13,0c3.32,1.94,3.31,5.09,0,7"/><path class="cls-3" d="M159.89,237a16.07,16.07,0,0,1-14.56,0c-4-2.33-4-6.1,0-8.43a16.06,16.06,0,0,1,14.54,0c4,2.33,4,6.11,0,8.43"/><path class="cls-3" d="M211.6,236.28a13.41,13.41,0,0,1-12.12,0c-3.33-1.94-3.31-5.09,0-7a13.39,13.39,0,0,1,12.14,0c3.32,1.94,3.31,5.1-.06,7"/><path class="cls-3" d="M210.11,266.23a10.7,10.7,0,0,1-9.7,0c-2.66-1.55-2.65-4.07,0-5.63a10.78,10.78,0,0,1,9.71,0c2.67,1.56,2.63,4.07,0,5.62"/><path class="cls-3" d="M263.33,235.51a10.7,10.7,0,0,1-9.7,0c-2.66-1.55-2.65-4.07,0-5.62a10.72,10.72,0,0,1,9.71,0c2.67,1.55,2.64,4.07-.05,5.62"/><path class="cls-3" d="M238.22,220.91a13.43,13.43,0,0,1-12.13,0c-3.32-1.93-3.31-5.09,0-7a13.43,13.43,0,0,1,12.13,0c3.32,1.94,3.31,5.1,0,7"/><path class="cls-3" d="M236.71,250.87a10.66,10.66,0,0,1-9.68,0c-2.67-1.55-2.67-4.06,0-5.62a10.72,10.72,0,0,1,9.71,0c2.67,1.56,2.64,4.07,0,5.62"/><path class="cls-3" d="M134.78,222.45c-4.71,2.72-12.33,2.71-17,0s-4.67-7.13,0-9.85,12.32-2.71,17,0,4.63,7.13-.05,9.84"/><path class="cls-3" d="M213.11,206.32a16.1,16.1,0,0,1-14.56,0c-4-2.33-4-6.1,0-8.43a16.06,16.06,0,0,1,14.54,0c4,2.33,4,6.11,0,8.44"/><path class="cls-3" d="M80.33,252.47a16,16,0,0,1-14.54,0c-4-2.33-4-6.1,0-8.43a16,16,0,0,1,14.55,0c4,2.32,4,6.09,0,8.42"/><path class="cls-3" d="M105.44,267.06a13.29,13.29,0,0,1-12.12,0c-3.33-1.93-3.33-5.08,0-7a13.35,13.35,0,0,1,12.12,0c3.35,1.94,3.31,5.09,0,7"/><path class="cls-3" d="M155.69,296.26a8,8,0,0,1-7.27,0c-2-1.17-2-3.05,0-4.22a8,8,0,0,1,7.28,0c2,1.16,2,3.06,0,4.21"/><path class="cls-3" d="M55.22,237.88c-4.71,2.71-12.32,2.71-17,0s-4.65-7.12.06-9.84,12.33-2.71,17,0,4.64,7.13-.05,9.84"/><path class="cls-3" d="M158.38,267a13.43,13.43,0,0,1-12.13,0c-3.32-1.94-3.31-5.09,0-7a13.4,13.4,0,0,1,12.13,0c3.32,1.94,3.32,5.09,0,7"/><path class="cls-3" d="M183.5,281.6a10.68,10.68,0,0,1-9.69,0c-2.67-1.55-2.67-4.07,0-5.62a10.74,10.74,0,0,1,9.72,0c2.66,1.55,2.63,4.07-.05,5.62"/><path class="cls-3" d="M133.27,252.42a16.1,16.1,0,0,1-14.56,0c-4-2.32-4-6.1.05-8.42a16.07,16.07,0,0,1,14.56,0c4,2.33,4,6.12,0,8.45"/><path class="cls-3" d="M108.15,237.82c-4.69,2.7-12.32,2.7-17,0s-4.65-7.14,0-9.85,12.32-2.71,17,0,4.65,7.12-.06,9.84"/><path class="cls-3" d="M130.57,281.66a10.66,10.66,0,0,1-9.71,0c-2.67-1.55-2.65-4.07,0-5.62a10.74,10.74,0,0,1,9.72,0c2.67,1.55,2.65,4.07,0,5.62"/><path class="cls-3" d="M109.66,207.86c-5.37,3.1-14.09,3.1-19.43,0s-5.31-8.16.06-11.26,14.1-3.1,19.43,0,5.31,8.16-.06,11.26"/><path class="cls-3" d="M82.13,191.85c-4.71,2.72-12.33,2.71-17,0s-4.65-7.13.05-9.84,12.33-2.71,17,0,4.65,7.14,0,9.84"/><path class="cls-3" d="M55.51,207.23c-4.69,2.7-12.33,2.7-17,0s-4.64-7.13.06-9.83,12.32-2.71,17,0,4.67,7.13,0,9.85"/><path class="cls-3" d="M83,223.22c-5.37,3.11-14.08,3.09-19.41,0s-5.32-8.14,0-11.24,14.09-3.1,19.42,0,5.31,8.16-.06,11.25"/><path class="cls-3" d="M30.11,223.28c-5.37,3.1-14.1,3.1-19.43,0s-5.29-8.14.08-11.24,14.06-3.1,19.4,0,5.32,8.14-.05,11.24"/><path class="cls-4" d="M183.49,157.11a4.21,4.21,0,0,0-3.8,0L153,172.36a4.26,4.26,0,0,1-3.81,0L122.71,156.9a4.22,4.22,0,0,1-1.88-3.3l.15-30.74a4.24,4.24,0,0,1,1.92-3.29l26.68-15.27a4.2,4.2,0,0,1,3.8,0l26.49,15.45a4.2,4.2,0,0,0,3.8,0L212,103.61a1.16,1.16,0,0,0,0-2.19l-58.47-34.1a4.2,4.2,0,0,0-3.8,0L91,100.94A4.22,4.22,0,0,0,89,104.22l-.34,67.72a4.2,4.2,0,0,0,1.89,3.31l58.46,34.09a4.21,4.21,0,0,0,3.8,0l58.78-33.64a1.16,1.16,0,0,0,0-2.19Z"/><path class="cls-5" d="M183.49,157.11a4.21,4.21,0,0,0-3.8,0L153,172.36a4.26,4.26,0,0,1-3.81,0L122.71,156.9a4.22,4.22,0,0,1-1.88-3.3l.15-30.74a4.24,4.24,0,0,1,1.92-3.29l26.68-15.27a4.2,4.2,0,0,1,3.8,0l26.49,15.45a4.2,4.2,0,0,0,3.8,0L212,103.61a1.16,1.16,0,0,0,0-2.19l-58.47-34.1a4.2,4.2,0,0,0-3.8,0L91,100.94A4.22,4.22,0,0,0,89,104.22l-.34,67.72a4.2,4.2,0,0,0,1.89,3.31l58.46,34.09a4.21,4.21,0,0,0,3.8,0l58.78-33.64a1.16,1.16,0,0,0,0-2.19Z"/><path class="cls-6" d="M183.49,157.11a4.21,4.21,0,0,0-3.8,0L153,172.36a4.26,4.26,0,0,1-3.81,0L122.71,156.9a4.22,4.22,0,0,1-1.88-3.3l.15-30.74a4.24,4.24,0,0,1,1.92-3.29l26.68-15.27a4.2,4.2,0,0,1,3.8,0l26.49,15.45a4.2,4.2,0,0,0,3.8,0L212,103.61a1.16,1.16,0,0,0,0-2.19l-58.47-34.1a4.2,4.2,0,0,0-3.8,0L91,100.94A4.22,4.22,0,0,0,89,104.22l-.34,67.72a4.2,4.2,0,0,0,1.89,3.31l58.46,34.09a4.21,4.21,0,0,0,3.8,0l58.78-33.64a1.16,1.16,0,0,0,0-2.19Z"/><path class="cls-7" d="M183.49,157.11a4.21,4.21,0,0,0-3.8,0L153,172.36a4.26,4.26,0,0,1-3.81,0L122.71,156.9a4.22,4.22,0,0,1-1.88-3.3l.15-30.74a4.24,4.24,0,0,1,1.92-3.29l26.68-15.27a4.2,4.2,0,0,1,3.8,0l26.49,15.45a4.2,4.2,0,0,0,3.8,0L212,103.61a1.16,1.16,0,0,0,0-2.19l-58.47-34.1a4.2,4.2,0,0,0-3.8,0L91,100.94A4.22,4.22,0,0,0,89,104.22l-.34,67.72a4.2,4.2,0,0,0,1.89,3.31l58.46,34.09a4.21,4.21,0,0,0,3.8,0l58.78-33.64a1.16,1.16,0,0,0,0-2.19Z"/><path class="cls-8" d="M183.49,157.11a4.21,4.21,0,0,0-3.8,0L153,172.36a4.26,4.26,0,0,1-3.81,0L122.71,156.9a4.22,4.22,0,0,1-1.88-3.3l.15-30.74a4.24,4.24,0,0,1,1.92-3.29l26.68-15.27a4.2,4.2,0,0,1,3.8,0l26.49,15.45a4.2,4.2,0,0,0,3.8,0L212,103.61a1.16,1.16,0,0,0,0-2.19l-58.47-34.1a4.2,4.2,0,0,0-3.8,0L91,100.94A4.22,4.22,0,0,0,89,104.22l-.34,67.72a4.2,4.2,0,0,0,1.89,3.31l58.46,34.09a4.21,4.21,0,0,0,3.8,0l58.78-33.64a1.16,1.16,0,0,0,0-2.19Z"/><path class="cls-9" d="M183.49,157.11a4.21,4.21,0,0,0-3.8,0L153,172.36a4.26,4.26,0,0,1-3.81,0L122.71,156.9a4.22,4.22,0,0,1-1.88-3.3l.15-30.74a4.24,4.24,0,0,1,1.92-3.29l26.68-15.27a4.2,4.2,0,0,1,3.8,0l26.49,15.45a4.2,4.2,0,0,0,3.8,0L212,103.61a1.16,1.16,0,0,0,0-2.19l-58.47-34.1a4.2,4.2,0,0,0-3.8,0L91,100.94A4.22,4.22,0,0,0,89,104.22l-.34,67.72a4.2,4.2,0,0,0,1.89,3.31l58.46,34.09a4.21,4.21,0,0,0,3.8,0l58.78-33.64a1.16,1.16,0,0,0,0-2.19Z"/><path class="cls-10" d="M183.49,157.11a4.21,4.21,0,0,0-3.8,0L153,172.36a4.26,4.26,0,0,1-3.81,0L122.71,156.9a4.22,4.22,0,0,1-1.88-3.3l.15-30.74a4.24,4.24,0,0,1,1.92-3.29l26.68-15.27a4.2,4.2,0,0,1,3.8,0l26.49,15.45a4.2,4.2,0,0,0,3.8,0L212,103.61a1.16,1.16,0,0,0,0-2.19l-58.47-34.1a4.2,4.2,0,0,0-3.8,0L91,100.94A4.22,4.22,0,0,0,89,104.22l-.34,67.72a4.2,4.2,0,0,0,1.89,3.31l58.46,34.09a4.21,4.21,0,0,0,3.8,0l58.78-33.64a1.16,1.16,0,0,0,0-2.19Z"/><text class="cls-11" transform="translate(342.69 217.11)">El<tspan class="cls-12" x="13.36" y="0">e</tspan><tspan class="cls-13" x="22.24" y="0">va</tspan><tspan class="cls-14" x="39.39" y="0">t</tspan><tspan x="44.7" y="0">e </tspan><tspan class="cls-15" x="57.2" y="0">Y</tspan><tspan x="65.41" y="0">our </tspan><tspan class="cls-16" x="93.56" y="0">W</tspan><tspan class="cls-17" x="106.71" y="0">ork-Life Experience</tspan></text><path class="cls-18" d="M539.35,121.74h18.83v72.52H539.35Z"/><path class="cls-19" d="M558,121.53h33.28v14.13H558Z"/><path class="cls-20" d="M558,179.83h33.28V194H558Z"/><path class="cls-21" d="M558,152.27h33.28V166.4H558Z"/><path class="cls-22" d="M514,134.8h18.18v45.74H514Z"/><path class="cls-23" d="M480.92,78H499.1V194.26H480.92Z"/><path class="cls-24" d="M497.8,121.74h34.41v14.37H497.8Z"/><path class="cls-25" d="M497.8,179.88h34.41v14.38H497.8Z"/><path class="cls-26" d="M498.45,151.14H514v13.72H498.45Z"/><path class="cls-27" d="M409.32,121.88h18.41V194H409.32Z"/><path class="cls-28" d="M450,121.88h18.41V194H450Z"/><path class="cls-29" d="M427.73,179.83H450V194h-22.3Z"/><path class="cls-30" d="M345.24,121.88h18.41V194H345.24Z"/><path class="cls-30" d="M363.65,121.88h33.28V136H363.65Z"/><path class="cls-30" d="M363.42,179.88h33.75v14.38H363.42Z"/></g></g></svg>