<svg width="24" height="22" viewBox="0 0 24 22" fill="none" xmlns="http://www.w3.org/2000/svg">
<path d="M9.09038 17.6724C8.96746 17.4258 8.7533 17.4008 8.66663 17.4008C8.57996 17.4008 8.3658 17.4253 8.24913 17.6587L7.92955 18.2978C7.66413 18.8303 6.88664 18.7716 6.70122 18.2108L5.99997 16.1078L5.55789 17.4362C5.31248 18.172 4.6254 18.6666 3.84957 18.6666H3.33332C2.96499 18.6666 2.66666 18.3683 2.66666 17.9999C2.66666 17.6316 2.96499 17.3333 3.33332 17.3333H3.84957C4.05082 17.3333 4.22915 17.2049 4.2929 17.0141L5.05081 14.7374C5.18831 14.3287 5.56914 14.0537 5.99997 14.0537C6.43081 14.0537 6.81164 14.3283 6.94872 14.7374L7.52705 16.4724C8.34996 15.7978 9.77954 16.0683 10.277 17.0624C10.3558 17.2199 10.5058 17.3103 10.667 17.3233V13.9016L16.0003 8.60621V6.66664H10.3333C9.78329 6.66664 9.33329 6.21664 9.33329 5.66664V0H0.999996C0.445831 0 0 0.445831 0 0.999996V20.3332C0 20.8874 0.445831 21.3332 0.999996 21.3332H14.9999C15.5541 21.3332 15.9999 20.8874 15.9999 20.3332V18.6666L10.6666 18.662C9.99496 18.6491 9.39246 18.2753 9.09038 17.6724V17.6724ZM15.9999 5.07914C15.9999 4.81665 15.8958 4.56248 15.7083 4.37498L11.6291 0.291665C11.4416 0.104166 11.1875 0 10.9208 0H10.6666V5.33331H15.9999V5.07914ZM11.9999 14.4566V17.3333H14.8745L21.6112 10.5508L18.7828 7.72247L11.9999 14.4566V14.4566ZM23.6891 6.97205L22.3612 5.64414C21.947 5.22998 21.2749 5.22998 20.8607 5.64414L19.7253 6.77955L22.5537 9.60787L23.6891 8.47246C24.1036 8.0583 24.1036 7.38622 23.6891 6.97205Z" fill="#FACC15"/>
</svg>
