<svg width="24" height="20" viewBox="0 0 24 20" fill="none" xmlns="http://www.w3.org/2000/svg">
<path d="M20.2694 0.608852C20.6841 0.214013 21.236 -0.00426934 21.8086 6.32848e-05C22.3812 0.00439591 22.9298 0.231006 23.3385 0.632075C23.7472 1.03314 23.9841 1.5773 23.9992 2.14973C24.0144 2.72215 23.8065 3.27807 23.4196 3.70017L11.6726 18.3913C11.4706 18.6089 11.2268 18.7835 10.9558 18.9047C10.6848 19.0259 10.3921 19.0912 10.0953 19.0967C9.79843 19.1022 9.50354 19.0477 9.22823 18.9367C8.95292 18.8256 8.70283 18.6601 8.49292 18.4502L0.702785 10.6601C0.485843 10.4579 0.311839 10.2141 0.191154 9.94329C0.0704689 9.67243 0.0055747 9.38004 0.000343637 9.08356C-0.00488742 8.78708 0.049652 8.49258 0.160707 8.21763C0.271762 7.94269 0.437058 7.69293 0.646735 7.48325C0.856411 7.27358 1.10617 7.10828 1.38112 6.99722C1.65606 6.88617 1.95056 6.83163 2.24704 6.83686C2.54352 6.84209 2.83591 6.90699 3.10677 7.02767C3.37763 7.14836 3.6214 7.32236 3.82355 7.5393L9.98853 13.7013L20.2134 0.673623C20.2319 0.650956 20.2515 0.629332 20.2723 0.608852H20.2694Z" fill="white"/>
</svg>
