<svg width="413" height="87" viewBox="0 0 413 87" fill="none" xmlns="http://www.w3.org/2000/svg">
<path d="M0.96 43.76C0.96 35.44 2.76 28.04 6.36 21.56C9.96 15 14.96 9.92 21.36 6.32C27.84 2.64 35.16 0.799995 43.32 0.799995C53.32 0.799995 61.88 3.43999 69 8.71999C76.12 14 80.88 21.2 83.28 30.32H60.72C59.04 26.8 56.64 24.12 53.52 22.28C50.48 20.44 47 19.52 43.08 19.52C36.76 19.52 31.64 21.72 27.72 26.12C23.8 30.52 21.84 36.4 21.84 43.76C21.84 51.12 23.8 57 27.72 61.4C31.64 65.8 36.76 68 43.08 68C47 68 50.48 67.08 53.52 65.24C56.64 63.4 59.04 60.72 60.72 57.2H83.28C80.88 66.32 76.12 73.52 69 78.8C61.88 84 53.32 86.6 43.32 86.6C35.16 86.6 27.84 84.8 21.36 81.2C14.96 77.52 9.96 72.44 6.36 65.96C2.76 59.48 0.96 52.08 0.96 43.76ZM176.006 1.76V86H155.486V51.32H123.566V86H103.046V1.76H123.566V34.76H155.486V1.76H176.006ZM218.54 18.2V35.24H246.02V51.08H218.54V69.56H249.62V86H198.02V1.76H249.62V18.2H218.54ZM300.622 86.84C294.462 86.84 288.942 85.84 284.062 83.84C279.182 81.84 275.262 78.88 272.302 74.96C269.422 71.04 267.902 66.32 267.742 60.8H289.582C289.902 63.92 290.982 66.32 292.822 68C294.662 69.6 297.062 70.4 300.022 70.4C303.062 70.4 305.462 69.72 307.222 68.36C308.982 66.92 309.862 64.96 309.862 62.48C309.862 60.4 309.142 58.68 307.702 57.32C306.342 55.96 304.622 54.84 302.542 53.96C300.542 53.08 297.662 52.08 293.902 50.96C288.462 49.28 284.022 47.6 280.582 45.92C277.142 44.24 274.182 41.76 271.702 38.48C269.222 35.2 267.982 30.92 267.982 25.64C267.982 17.8 270.822 11.68 276.502 7.28C282.182 2.8 289.582 0.559999 298.702 0.559999C307.982 0.559999 315.462 2.8 321.142 7.28C326.822 11.68 329.862 17.84 330.262 25.76H308.062C307.902 23.04 306.902 20.92 305.062 19.4C303.222 17.8 300.862 17 297.982 17C295.502 17 293.502 17.68 291.982 19.04C290.462 20.32 289.702 22.2 289.702 24.68C289.702 27.4 290.982 29.52 293.542 31.04C296.102 32.56 300.102 34.2 305.542 35.96C310.982 37.8 315.382 39.56 318.742 41.24C322.182 42.92 325.142 45.36 327.622 48.56C330.102 51.76 331.342 55.88 331.342 60.92C331.342 65.72 330.102 70.08 327.622 74C325.222 77.92 321.702 81.04 317.062 83.36C312.422 85.68 306.942 86.84 300.622 86.84ZM381.65 86.84C375.49 86.84 369.97 85.84 365.09 83.84C360.21 81.84 356.29 78.88 353.33 74.96C350.45 71.04 348.93 66.32 348.77 60.8H370.61C370.93 63.92 372.01 66.32 373.85 68C375.69 69.6 378.09 70.4 381.05 70.4C384.09 70.4 386.49 69.72 388.25 68.36C390.01 66.92 390.89 64.96 390.89 62.48C390.89 60.4 390.17 58.68 388.73 57.32C387.37 55.96 385.65 54.84 383.57 53.96C381.57 53.08 378.69 52.08 374.93 50.96C369.49 49.28 365.05 47.6 361.61 45.92C358.17 44.24 355.21 41.76 352.73 38.48C350.25 35.2 349.01 30.92 349.01 25.64C349.01 17.8 351.85 11.68 357.53 7.28C363.21 2.8 370.61 0.559999 379.73 0.559999C389.01 0.559999 396.49 2.8 402.17 7.28C407.85 11.68 410.89 17.84 411.29 25.76H389.09C388.93 23.04 387.93 20.92 386.09 19.4C384.25 17.8 381.89 17 379.01 17C376.53 17 374.53 17.68 373.01 19.04C371.49 20.32 370.73 22.2 370.73 24.68C370.73 27.4 372.01 29.52 374.57 31.04C377.13 32.56 381.13 34.2 386.57 35.96C392.01 37.8 396.41 39.56 399.77 41.24C403.21 42.92 406.17 45.36 408.65 48.56C411.13 51.76 412.37 55.88 412.37 60.92C412.37 65.72 411.13 70.08 408.65 74C406.25 77.92 402.73 81.04 398.09 83.36C393.45 85.68 387.97 86.84 381.65 86.84Z" fill="white"/>
</svg>
