<svg width="40" height="41" viewBox="0 0 40 41" fill="none" xmlns="http://www.w3.org/2000/svg">
<path d="M36 41H4C1.8 41 0 39.2 0 37V16.1C0 14.8 0.6 13.6 1.7 12.8L20 0L38.3 12.8C39.4 13.5 40 14.8 40 16.1V37C40 39.2 38.2 41 36 41Z" fill="#78909C"/>
<path d="M10 1H30V32H10V1Z" fill="#AED581"/>
<path d="M9 0V33H31V0H9ZM29 31H11V2H29V31Z" fill="#558B2F"/>
<path d="M30 3C30 4.7 29.7 6 28 6C26.3 6 25 4.7 25 3C25 1.3 26.3 1 28 1C29.7 1 30 1.3 30 3ZM12 1C13.7 1 15 1.3 15 3C15 4.7 13.7 6 12 6C10.3 6 10 4.7 10 3C10 1.3 10.3 1 12 1Z" fill="#558B2F"/>
<path d="M20 10C21.1046 10 22 9.10457 22 8C22 6.89543 21.1046 6 20 6C18.8954 6 18 6.89543 18 8C18 9.10457 18.8954 10 20 10Z" fill="#558B2F"/>
<path d="M20 26C23.3137 26 26 23.3137 26 20C26 16.6863 23.3137 14 20 14C16.6863 14 14 16.6863 14 20C14 23.3137 16.6863 26 20 26Z" fill="#558B2F"/>
<path d="M36 41H4C1.8 41 0 39.2 0 37V17L20 30L40 17V37C40 39.2 38.2 41 36 41Z" fill="#CFD8DC"/>
</svg>
