<svg  viewBox="0 0 512 512" fill="none" xmlns="http://www.w3.org/2000/svg">
<path d="M477.539 373.169L417.477 324.923C403.692 314.092 384 313.108 370.215 323.938L319.015 361.354C313.108 366.277 304.246 365.292 298.339 359.384L221.539 290.461L152.615 213.661C146.708 207.754 146.708 199.877 150.646 192.984L188.062 141.784C198.892 128 197.908 108.308 187.077 94.523L138.831 34.4614C124.062 16.7383 97.477 14.7691 80.7385 31.5076L29.5385 82.7076C21.6616 90.5845 17.7231 101.415 17.7231 112.246C22.6462 212.677 67.9385 308.184 134.892 375.138C201.846 442.092 297.354 487.384 397.785 492.308C408.615 493.292 419.446 488.369 427.323 480.492L478.523 429.292C497.231 414.523 496.246 386.954 477.539 373.169Z" fill="#1398F8" fill-opacity="0.88"/>
</svg>
