<svg width="512" height="512" viewBox="0 0 512 512" fill="none" xmlns="http://www.w3.org/2000/svg">
<path d="M160 426.667H405.334L469.334 490.667V266.667C469.334 243.2 450.134 224 426.667 224H160C136.533 224 117.333 243.2 117.333 266.667V384C117.333 407.467 136.533 426.667 160 426.667Z" fill="#1398F8" fill-opacity="0.88"/>
<path d="M307.2 349.866H268.8L261.333 372.266H237.867L277.333 265.6H297.6L337.067 372.266H313.6L307.2 349.866ZM274.133 332.8H300.8L288 292.266L274.133 332.8Z" fill="white"/>
<path d="M352 266.667H106.667L42.6665 330.667V85.3332C42.6665 61.8665 61.8665 42.6665 85.3332 42.6665H352C375.467 42.6665 394.667 61.8665 394.667 85.3332V224C394.667 247.467 375.467 266.667 352 266.667Z" fill="#1398F8" fill-opacity="0.88"/>
<path d="M270.934 151.466C270.934 162.133 268.8 170.666 265.6 178.133C262.4 185.6 258.134 192 251.734 196.266L269.867 210.133L256 222.933L232.534 204.8C230.4 204.8 227.2 205.866 224 205.866C217.6 205.866 211.2 204.8 204.8 202.666C199.467 200.533 194.134 196.266 189.867 192C185.6 187.733 182.4 181.333 180.267 174.933C178.134 168.533 177.067 161.066 177.067 152.533V148.266C177.067 139.733 178.134 132.266 180.267 125.866C182.4 119.466 185.6 113.066 189.867 108.8C194.134 104.533 198.4 100.266 204.8 98.1331C210.134 95.9998 216.534 94.9331 224 94.9331C230.4 94.9331 236.8 95.9998 243.2 98.1331C248.534 100.266 253.867 104.533 258.134 108.8C262.4 113.066 265.6 119.466 267.734 125.866C269.867 132.266 270.934 139.733 270.934 148.266V151.466ZM247.467 146.133C247.467 134.4 245.334 125.866 241.067 120.533C236.8 114.133 231.467 112 224 112C216.534 112 210.134 115.2 206.934 120.533C202.667 126.933 200.534 135.466 200.534 146.133V151.466C200.534 156.8 201.6 162.133 202.667 166.4C203.734 170.666 204.8 174.933 206.934 177.066C209.067 180.266 211.2 182.4 214.4 183.466C217.6 184.533 220.8 185.6 224 185.6C231.467 185.6 237.867 182.4 241.067 177.066C245.334 170.666 247.467 162.133 247.467 150.4V146.133V146.133Z" fill="white"/>
</svg>
