<svg width="24" height="16" viewBox="0 0 24 16" fill="none" xmlns="http://www.w3.org/2000/svg">
<path d="M2.66667 0C1.19583 0 0 1.19583 0 2.66667V13.3333C0 14.8042 1.19583 16 2.66667 16H21.3333C22.8042 16 24 14.8042 24 13.3333V2.66667C24 1.19583 22.8042 0 21.3333 0H2.66667ZM5.33333 13.3333H2.66667V10.6667C4.1375 10.6667 5.33333 11.8625 5.33333 13.3333ZM2.66667 5.33333V2.66667H5.33333C5.33333 4.1375 4.1375 5.33333 2.66667 5.33333ZM18.6667 13.3333C18.6667 11.8625 19.8625 10.6667 21.3333 10.6667V13.3333H18.6667ZM21.3333 5.33333C19.8625 5.33333 18.6667 4.1375 18.6667 2.66667H21.3333V5.33333ZM16.6667 8C16.6667 10.5792 14.5792 12.6667 12 12.6667C9.42083 12.6667 7.33333 10.5792 7.33333 8C7.33333 5.42083 9.42083 3.33333 12 3.33333C14.5792 3.33333 16.6667 5.42083 16.6667 8ZM10.5 6C10.5 6.40417 10.7875 6.7375 11.1667 6.81667V8.83333H11C10.5417 8.83333 10.1667 9.20833 10.1667 9.66667C10.1667 10.125 10.5417 10.5 11 10.5H13C13.4583 10.5 13.8333 10.125 13.8333 9.66667C13.8333 9.20833 13.4583 8.83333 13 8.83333H12.8333V6C12.8333 5.54167 12.4583 5.16667 12 5.16667H11.3333C10.875 5.16667 10.5 5.54167 10.5 6Z" fill="#D1D5DB"/>
</svg>
