<svg width="24" height="24" viewBox="0 0 24 24" fill="none" xmlns="http://www.w3.org/2000/svg">
<path d="M23.9439 16.4334C24.2159 15.7854 23.4386 15.2334 22.7866 15.5214C21.4833 16.0934 20.0752 16.3877 18.6519 16.3854C13.072 16.3854 8.5493 11.9534 8.5493 6.48539C8.54726 4.63919 9.07177 2.83069 10.0613 1.27207C10.44 0.674743 9.9853 -0.151921 9.29197 0.0240787C3.94665 1.38807 0 6.15073 0 11.816C0 18.5454 5.56665 24 12.4346 24C17.6346 24 22.0879 20.8733 23.9439 16.4334Z" fill="#facc15"/>
<path d="M16.8146 0.137416C16.1079 -0.334582 15.2653 0.508082 15.736 1.21475L16.5759 2.47474C16.9167 2.98562 17.0985 3.58597 17.0985 4.20007C17.0985 4.81417 16.9167 5.41451 16.5759 5.9254L15.736 7.18539C15.2653 7.89206 16.1093 8.73472 16.8159 8.26272L18.0746 7.42273C18.5855 7.08197 19.1858 6.90013 19.7999 6.90013C20.414 6.90013 21.0144 7.08197 21.5253 7.42273L22.7853 8.26272C23.4919 8.73472 24.3346 7.89206 23.8626 7.18539L23.0226 5.9254C22.6818 5.41451 22.5 4.81417 22.5 4.20007C22.5 3.58597 22.6818 2.98562 23.0226 2.47474L23.8626 1.21475C24.3346 0.508082 23.4919 -0.334582 22.7839 0.137416L21.5253 0.977414C21.0144 1.31817 20.414 1.50001 19.7999 1.50001C19.1858 1.50001 18.5855 1.31817 18.0746 0.977414L16.8146 0.137416V0.137416Z" fill="#facc15"/>
</svg>
