<svg width="24" height="21" viewBox="0 0 24 21" fill="none" xmlns="http://www.w3.org/2000/svg">
<path d="M4.68293 2.625C4.68293 1.92881 4.96045 1.26113 5.45445 0.768845C5.94845 0.276562 6.61845 0 7.31707 0H17.2683C17.9669 0 18.6369 0.276562 19.1309 0.768845C19.6249 1.26113 19.9024 1.92881 19.9024 2.625V11.6667H24V15.4583C24 16.4639 23.5991 17.4284 22.8856 18.1394C22.172 18.8505 21.2042 19.25 20.1951 19.25H14.0488V17.5H18.1463V2.625C18.1463 2.39294 18.0538 2.17038 17.8892 2.00628C17.7245 1.84219 17.5012 1.75 17.2683 1.75H7.31707C7.0842 1.75 6.86086 1.84219 6.6962 2.00628C6.53153 2.17038 6.43902 2.39294 6.43902 2.625V11.6667H4.68293V2.625ZM19.9024 17.5H20.1951C20.7385 17.5 21.2596 17.2849 21.6438 16.902C22.028 16.5191 22.2439 15.9998 22.2439 15.4583V13.4167H19.9024V17.5ZM15.5122 14.5833H14.0488C14.0496 13.9521 13.8441 13.3378 13.4634 12.8333H15.5122C15.7451 12.8333 15.9684 12.9255 16.1331 13.0896C16.2977 13.2537 16.3902 13.4763 16.3902 13.7083C16.3902 13.9404 16.2977 14.163 16.1331 14.3271C15.9684 14.4911 15.7451 14.5833 15.5122 14.5833ZM8.19512 5.54167C8.19512 5.3096 8.28763 5.08704 8.4523 4.92295C8.61696 4.75885 8.8403 4.66667 9.07317 4.66667H15.5122C15.7451 4.66667 15.9684 4.75885 16.1331 4.92295C16.2977 5.08704 16.3902 5.3096 16.3902 5.54167C16.3902 5.77373 16.2977 5.99629 16.1331 6.16038C15.9684 6.32448 15.7451 6.41667 15.5122 6.41667H9.07317C8.8403 6.41667 8.61696 6.32448 8.4523 6.16038C8.28763 5.99629 8.19512 5.77373 8.19512 5.54167ZM8.19512 9.625C8.19512 9.39294 8.28763 9.17038 8.4523 9.00628C8.61696 8.84219 8.8403 8.75 9.07317 8.75H15.5122C15.7451 8.75 15.9684 8.84219 16.1331 9.00628C16.2977 9.17038 16.3902 9.39294 16.3902 9.625C16.3902 9.85706 16.2977 10.0796 16.1331 10.2437C15.9684 10.4078 15.7451 10.5 15.5122 10.5H9.07317C8.8403 10.5 8.61696 10.4078 8.4523 10.2437C8.28763 10.0796 8.19512 9.85706 8.19512 9.625ZM0 14.5833C0 14.1192 0.185017 13.6741 0.514349 13.3459C0.843681 13.0177 1.29035 12.8333 1.7561 12.8333H11.122C11.5877 12.8333 12.0344 13.0177 12.3637 13.3459C12.693 13.6741 12.878 14.1192 12.878 14.5833V19.25C12.878 19.7141 12.693 20.1592 12.3637 20.4874C12.0344 20.8156 11.5877 21 11.122 21H1.7561C1.29035 21 0.843681 20.8156 0.514349 20.4874C0.185017 20.1592 0 19.7141 0 19.25V14.5833ZM11.7073 15.1667C11.3968 15.1667 11.099 15.0438 10.8795 14.825C10.6599 14.6062 10.5366 14.3094 10.5366 14H9.36585C9.36585 14.6188 9.61254 15.2123 10.0517 15.6499C10.4908 16.0875 11.0863 16.3333 11.7073 16.3333V15.1667ZM11.7073 17.5C11.0863 17.5 10.4908 17.7458 10.0517 18.1834C9.61254 18.621 9.36585 19.2145 9.36585 19.8333H10.5366C10.5366 19.5239 10.6599 19.2272 10.8795 19.0084C11.099 18.7896 11.3968 18.6667 11.7073 18.6667V17.5ZM2.34146 14C2.34146 14.3094 2.21812 14.6062 1.99856 14.825C1.77901 15.0438 1.48123 15.1667 1.17073 15.1667V16.3333C1.79173 16.3333 2.38729 16.0875 2.8264 15.6499C3.26551 15.2123 3.51219 14.6188 3.51219 14H2.34146ZM3.51219 19.8333C3.51219 19.2145 3.26551 18.621 2.8264 18.1834C2.38729 17.7458 1.79173 17.5 1.17073 17.5V18.6667C1.48123 18.6667 1.77901 18.7896 1.99856 19.0084C2.21812 19.2272 2.34146 19.5239 2.34146 19.8333H3.51219ZM8.4878 16.9167C8.4878 16.3752 8.27195 15.8559 7.88773 15.473C7.50351 15.0901 6.98239 14.875 6.43902 14.875C5.89565 14.875 5.37454 15.0901 4.99032 15.473C4.6061 15.8559 4.39024 16.3752 4.39024 16.9167C4.39024 17.4581 4.6061 17.9775 4.99032 18.3603C5.37454 18.7432 5.89565 18.9583 6.43902 18.9583C6.98239 18.9583 7.50351 18.7432 7.88773 18.3603C8.27195 17.9775 8.4878 17.4581 8.4878 16.9167V16.9167Z" fill="white"/>
</svg>
