<svg width="23" height="24" viewBox="0 0 23 24" fill="none" xmlns="http://www.w3.org/2000/svg">
<path d="M9.6 0L18.3576 2.736C18.6018 2.81225 18.8153 2.96458 18.9669 3.17075C19.1184 3.37691 19.2001 3.62613 19.2 3.882V6H21.6C21.9183 6 22.2235 6.12643 22.4485 6.35147C22.6736 6.57652 22.8 6.88174 22.8 7.2V9.6H7.2V7.2C7.2 6.88174 7.32643 6.57652 7.55147 6.35147C7.77652 6.12643 8.08174 6 8.4 6H16.8V4.764L9.6 2.5128L2.4 4.764V13.6488C2.39983 14.3835 2.5683 15.1084 2.89244 15.7677C3.21657 16.427 3.68773 17.0031 4.2696 17.4516L4.4964 17.6148L9.6 21.096L14.1384 18H8.4C8.08174 18 7.77652 17.8736 7.55147 17.6485C7.32643 17.4235 7.2 17.1183 7.2 16.8V12H22.8V16.8C22.8 17.1183 22.6736 17.4235 22.4485 17.6485C22.2235 17.8736 21.9183 18 21.6 18L17.736 18.0012C17.2716 18.6132 16.7076 19.1532 16.056 19.5972L9.6 24L3.144 19.5984C2.17503 18.9377 1.3821 18.0504 0.834168 17.0135C0.286234 15.9766 -0.000121467 14.8216 3.86518e-08 13.6488V3.882C0.000144727 3.62633 0.081944 3.37739 0.233475 3.17146C0.385005 2.96554 0.598346 2.81339 0.8424 2.7372L9.6 0Z" fill="white"/>
</svg>
