<svg width="" height="" viewBox="0 0 512 512" fill="none" xmlns="http://www.w3.org/2000/svg">
<path d="M473.595 475.627C458.297 372.714 418.394 271.298 324.252 238.776C360.839 215.99 385.123 175.445 385.123 129.123C385.123 57.8755 327.355 0 256 0C184.645 0 126.877 57.7685 126.877 129.123C126.877 175.338 151.268 215.99 187.748 238.776C93.6064 271.298 53.5964 372.714 38.4054 475.627C35.517 494.776 50.601 512 69.9641 512H441.822C461.399 512 476.483 494.776 473.595 475.627ZM175.552 129.123C175.552 84.7271 211.711 48.5683 256.107 48.5683C266.698 48.5683 275.363 57.2336 275.363 67.8245C275.363 78.4154 266.698 87.0807 256.107 87.0807C232.893 87.0807 214.064 105.909 214.064 129.123C214.064 139.714 205.399 148.379 194.808 148.379C184.11 148.379 175.552 139.821 175.552 129.123Z" fill="#1398F8" fill-opacity="0.88"/>
</svg>
