<svg width="26" height="22" viewBox="0 0 26 22" fill="none" xmlns="http://www.w3.org/2000/svg">
<path d="M4.16216 14.4295L5.40898 11.8376C5.44271 11.7635 5.4976 11.7006 5.56702 11.6564C5.63645 11.6122 5.71743 11.5887 5.80018 11.5887C5.88293 11.5887 5.96392 11.6122 6.03334 11.6564C6.10276 11.7006 6.15766 11.7635 6.19139 11.8376L7.4394 14.4295L10.227 14.8483C10.5846 14.9012 10.7262 15.353 10.467 15.6119L8.45101 17.6273L8.92622 20.4756C8.98742 20.8415 8.61421 21.1204 8.29381 20.9474L5.80018 19.6027L3.30655 20.9474C2.98615 21.1204 2.61294 20.8415 2.67414 20.4768L3.14935 17.6273L1.13333 15.6119C0.872924 15.353 1.01573 14.9013 1.37333 14.8471L4.16216 14.4295V14.4295ZM18.5623 14.4295L19.8091 11.8376C19.8429 11.7635 19.8978 11.7006 19.9672 11.6564C20.0366 11.6122 20.1176 11.5887 20.2004 11.5887C20.2831 11.5887 20.3641 11.6122 20.4335 11.6564C20.5029 11.7006 20.5578 11.7635 20.5916 11.8376L21.8396 14.4295L24.6272 14.8483C24.9848 14.9012 25.1264 15.353 24.8672 15.6119L22.8512 17.6273L23.3264 20.4756C23.3876 20.8415 23.0144 21.1204 22.694 20.9474L20.2004 19.6027L17.7067 20.9474C17.3863 21.1204 17.0131 20.8415 17.0743 20.4768L17.5495 17.6273L15.5335 15.6119C15.2743 15.353 15.4159 14.9013 15.7735 14.8471L18.5623 14.4295V14.4295ZM11.3622 3.84071L12.6091 1.24882C12.6428 1.17474 12.6977 1.11181 12.7671 1.06765C12.8365 1.0235 12.9175 1 13.0003 1C13.083 1 13.164 1.0235 13.2334 1.06765C13.3028 1.11181 13.3577 1.17474 13.3915 1.24882L14.6395 3.84071L17.4271 4.25956C17.7847 4.3125 17.9263 4.76429 17.6671 5.02312L15.6511 7.03852L16.1263 9.88689C16.1875 10.2528 15.8143 10.5316 15.4939 10.3587L13.0003 9.01391L10.5066 10.3587C10.1862 10.5316 9.81303 10.2528 9.87423 9.88807L10.3494 7.03852L8.33341 5.02312C8.07301 4.76429 8.21581 4.3125 8.57341 4.25838L11.3622 3.84071V3.84071Z" stroke="#18181B" stroke-width="1" stroke-linecap="round" stroke-linejoin="round"/>
</svg>
