<svg width="24" height="21" viewBox="0 0 24 21" fill="none" xmlns="http://www.w3.org/2000/svg">
<path d="M0 10.2857C0 16 4.57143 20.5714 10.2857 20.5714C13.0286 20.5714 15.6571 19.5429 17.6 17.6L15.8857 15.8857C14.4 17.4857 12.4571 18.2857 10.2857 18.2857C3.2 18.2857 -0.457143 9.71429 4.68571 4.68571C9.82857 -0.342857 18.2857 3.2 18.2857 10.2857H14.8571L19.4286 14.8571H19.5429L24 10.2857H20.5714C20.5714 4.57143 16 0 10.2857 0C4.57143 0 0 4.57143 0 10.2857ZM9.14286 13.7143H11.4286V16H9.14286V13.7143ZM9.14286 4.57143H11.4286V11.4286H9.14286V4.57143Z" fill="white"/>
</svg>
