<svg width="24" height="22" viewBox="0 0 24 22" fill="none" xmlns="http://www.w3.org/2000/svg">
<path d="M5.45153 4.25686C7.04921 2.89031 9.0214 2.05816 11.0999 1.8736V3.97209C11.0999 4.2152 11.1947 4.44835 11.3635 4.62025C11.5322 4.79215 11.7612 4.88873 11.9998 4.88873C12.2385 4.88873 12.4675 4.79215 12.6362 4.62025C12.805 4.44835 12.8998 4.2152 12.8998 3.97209V1.8736C15.336 2.09399 17.6134 3.19841 19.3171 4.98566C21.0208 6.77291 22.0374 9.12404 22.1817 11.6107H20.0997C19.8611 11.6107 19.6321 11.7073 19.4634 11.8792C19.2946 12.0511 19.1998 12.2843 19.1998 12.5274C19.1998 12.7705 19.2946 13.0036 19.4634 13.1755C19.6321 13.3474 19.8611 13.444 20.0997 13.444H22.1325C21.8205 16.2697 20.4249 18.6358 18.331 20.3713C18.1457 20.525 18.028 20.7473 18.0037 20.9893C17.9794 21.2313 18.0505 21.4733 18.2014 21.6619C18.3522 21.8506 18.5705 21.9705 18.8081 21.9952C19.0458 22.02 19.2833 21.9476 19.4686 21.7939C22.1397 19.5781 23.8725 16.4237 23.9925 12.6459C24.0005 12.5827 24.0021 12.5188 23.9973 12.4553L23.9997 12.2218C23.9997 5.47171 18.6274 0 11.9998 0C5.37233 0 0 5.47171 0 12.2218C0 16.1963 1.82758 19.4987 4.52394 21.7866C4.708 21.9353 4.94186 22.0049 5.17557 21.9804C5.40929 21.9558 5.62432 21.8392 5.77473 21.6554C5.92514 21.4715 5.99901 21.2351 5.98055 20.9965C5.96209 20.758 5.85276 20.5362 5.67593 20.3787C3.62395 18.6358 2.19237 16.2636 1.86958 13.444H3.89995C4.13864 13.444 4.36756 13.3474 4.53634 13.1755C4.70512 13.0036 4.79994 12.7705 4.79994 12.5274C4.79994 12.2843 4.70512 12.0511 4.53634 11.8792C4.36756 11.7073 4.13864 11.6107 3.89995 11.6107H1.81678C1.94878 9.31058 2.81396 7.21087 4.17955 5.55237L5.66393 7.06421C5.83454 7.22612 6.06019 7.31427 6.29335 7.31008C6.52651 7.30589 6.74897 7.20969 6.91386 7.04175C7.07875 6.8738 7.17321 6.64723 7.17732 6.40976C7.18143 6.17229 7.09489 5.94246 6.93591 5.7687L5.45153 4.25686ZM17.7118 5.66359C17.5723 5.5542 17.4004 5.49643 17.2244 5.49976C17.0484 5.50309 16.8788 5.56733 16.7434 5.68192L16.4818 5.90558C15.5383 6.71257 14.5979 7.52329 13.6606 8.33772C12.8734 9.02214 12.0682 9.73101 11.4251 10.3091C11.1466 10.5584 10.8709 10.811 10.5983 11.0669C10.4203 11.2292 10.252 11.4023 10.0943 11.5851C9.90816 11.8184 9.76996 12.0875 9.68787 12.3762C9.60578 12.665 9.58148 12.9677 9.61639 13.2662C9.65131 13.5647 9.74474 13.8531 9.89115 14.1141C10.0375 14.3752 10.2339 14.6037 10.4687 14.786C10.9467 15.1614 11.5496 15.3323 12.1493 15.2625C12.7491 15.1926 13.2985 14.8876 13.681 14.412C13.7866 14.28 13.927 14.0502 14.071 13.8045C14.2246 13.5418 14.413 13.2057 14.6218 12.8292C15.0382 12.0715 15.5434 11.128 16.0318 10.2077C16.6118 9.11133 17.1874 8.01258 17.7586 6.91144L17.9158 6.60711C17.9965 6.45061 18.0204 6.27006 17.983 6.09739C17.9457 5.92472 17.8496 5.77106 17.7118 5.66359V5.66359Z" fill="white"/>
</svg>
