<svg width="12" height="16" viewBox="0 0 12 16" fill="none" xmlns="http://www.w3.org/2000/svg">
<path d="M6 4.5V0H1.5C1.10218 0 0.720644 0.158035 0.43934 0.43934C0.158035 0.720644 0 1.10218 0 1.5V14.5C0 14.8978 0.158035 15.2794 0.43934 15.5607C0.720644 15.842 1.10218 16 1.5 16H10.5C10.8978 16 11.2794 15.842 11.5607 15.5607C11.842 15.2794 12 14.8978 12 14.5V6H7.5C7.10218 6 6.72064 5.84196 6.43934 5.56066C6.15804 5.27936 6 4.89782 6 4.5ZM2 8.5C2 8.36739 2.05268 8.24021 2.14645 8.14645C2.24021 8.05268 2.36739 8 2.5 8C2.63261 8 2.75979 8.05268 2.85355 8.14645C2.94732 8.24021 3 8.36739 3 8.5C3 8.63261 2.94732 8.75979 2.85355 8.85355C2.75979 8.94732 2.63261 9 2.5 9C2.36739 9 2.24021 8.94732 2.14645 8.85355C2.05268 8.75979 2 8.63261 2 8.5ZM2 10.5C2 10.3674 2.05268 10.2402 2.14645 10.1464C2.24021 10.0527 2.36739 10 2.5 10C2.63261 10 2.75979 10.0527 2.85355 10.1464C2.94732 10.2402 3 10.3674 3 10.5C3 10.6326 2.94732 10.7598 2.85355 10.8536C2.75979 10.9473 2.63261 11 2.5 11C2.36739 11 2.24021 10.9473 2.14645 10.8536C2.05268 10.7598 2 10.6326 2 10.5ZM2 12.5C2 12.3674 2.05268 12.2402 2.14645 12.1464C2.24021 12.0527 2.36739 12 2.5 12C2.63261 12 2.75979 12.0527 2.85355 12.1464C2.94732 12.2402 3 12.3674 3 12.5C3 12.6326 2.94732 12.7598 2.85355 12.8536C2.75979 12.9473 2.63261 13 2.5 13C2.36739 13 2.24021 12.9473 2.14645 12.8536C2.05268 12.7598 2 12.6326 2 12.5ZM4 8.5C4 8.36739 4.05268 8.24021 4.14645 8.14645C4.24021 8.05268 4.36739 8 4.5 8H9.5C9.63261 8 9.75979 8.05268 9.85355 8.14645C9.94732 8.24021 10 8.36739 10 8.5C10 8.63261 9.94732 8.75979 9.85355 8.85355C9.75979 8.94732 9.63261 9 9.5 9H4.5C4.36739 9 4.24021 8.94732 4.14645 8.85355C4.05268 8.75979 4 8.63261 4 8.5ZM4 10.5C4 10.3674 4.05268 10.2402 4.14645 10.1464C4.24021 10.0527 4.36739 10 4.5 10H9.5C9.63261 10 9.75979 10.0527 9.85355 10.1464C9.94732 10.2402 10 10.3674 10 10.5C10 10.6326 9.94732 10.7598 9.85355 10.8536C9.75979 10.9473 9.63261 11 9.5 11H4.5C4.36739 11 4.24021 10.9473 4.14645 10.8536C4.05268 10.7598 4 10.6326 4 10.5ZM4 12.5C4 12.3674 4.05268 12.2402 4.14645 12.1464C4.24021 12.0527 4.36739 12 4.5 12H9.5C9.63261 12 9.75979 12.0527 9.85355 12.1464C9.94732 12.2402 10 12.3674 10 12.5C10 12.6326 9.94732 12.7598 9.85355 12.8536C9.75979 12.9473 9.63261 13 9.5 13H4.5C4.36739 13 4.24021 12.9473 4.14645 12.8536C4.05268 12.7598 4 12.6326 4 12.5ZM7 4.5V0.25L11.75 5H7.5C7.36739 5 7.24021 4.94732 7.14645 4.85355C7.05268 4.75979 7 4.63261 7 4.5Z" fill="#4B5563"/>
</svg>
