<svg width="24" height="19" viewBox="0 0 24 19" fill="none" xmlns="http://www.w3.org/2000/svg">
<path d="M19.6499 5.73888C18.7377 2.36515 15.891 0 12.5984 0C10.3023 0 8.16354 1.1575 6.77346 3.12321C6.38981 3.03491 5.99743 2.9901 5.60375 2.98964C2.51432 2.98938 0 5.72823 0 9.09599C0 10.3036 0.325107 11.4734 0.938679 12.4791C1.08291 12.7145 1.3259 12.8556 1.58578 12.8556H6.76332C6.80049 10.4479 8.76126 8.50684 11.1779 8.50684C13.5945 8.50684 15.555 10.4479 15.5924 12.8556H22.5948C22.8409 12.8556 23.072 12.7296 23.2193 12.5139C23.73 11.766 24.0021 10.881 24 9.97541C23.9997 7.46603 21.9688 5.43509 19.6499 5.73888V5.73888Z" fill="#D1D5DB"/>
<path d="M13.9087 14.4444L11.3312 10.8422C11.3081 10.8101 11.2777 10.784 11.2425 10.7659C11.2073 10.7478 11.1683 10.7384 11.1287 10.7383H11.1282C11.0477 10.7383 10.9728 10.7773 10.9258 10.8433L8.36494 14.4444C8.33858 14.4818 8.32297 14.5257 8.31981 14.5713C8.31665 14.6169 8.32606 14.6626 8.34701 14.7032C8.38963 14.7864 8.47539 14.8379 8.56869 14.8379H9.77296V18.0731C9.77296 18.2113 9.88471 18.3226 10.0219 18.3226H12.2517C12.3894 18.3226 12.5006 18.2113 12.5006 18.0731V14.8379H13.706C13.7516 14.8378 13.7964 14.8251 13.8354 14.8013C13.8744 14.7775 13.906 14.7434 13.927 14.7028C13.9479 14.6622 13.9572 14.6166 13.954 14.571C13.9508 14.5255 13.9351 14.4817 13.9087 14.4444V14.4444Z" fill="#D1D5DB"/>
</svg>
