<svg width="18" height="14" viewBox="0 0 18 14" fill="none" xmlns="http://www.w3.org/2000/svg">
<path d="M2.8125 0C2.06658 0 1.35121 0.263392 0.823762 0.732233C0.296316 1.20107 0 1.83696 0 2.5V11.5C0 12.163 0.296316 12.7989 0.823762 13.2678C1.35121 13.7366 2.06658 14 2.8125 14H15.1875C15.9334 14 16.6488 13.7366 17.1762 13.2678C17.7037 12.7989 18 12.163 18 11.5V2.5C18 1.83696 17.7037 1.20107 17.1762 0.732233C16.6488 0.263392 15.9334 0 15.1875 0H2.8125ZM7.61063 4.076L12.1106 6.578C12.1902 6.6224 12.2561 6.68383 12.3021 6.75668C12.3482 6.82952 12.3729 6.91146 12.3741 6.995C12.3754 7.07855 12.353 7.16104 12.3092 7.23493C12.2653 7.30882 12.2013 7.37176 12.123 7.418L7.623 10.067C7.53823 10.1169 7.43983 10.1454 7.33827 10.1496C7.23671 10.1537 7.13579 10.1333 7.04624 10.0905C6.95668 10.0477 6.88185 9.98419 6.82968 9.90662C6.77752 9.82905 6.74998 9.74037 6.75 9.65V4.5C6.75 4.41075 6.77688 4.32312 6.82784 4.24622C6.8788 4.16932 6.95199 4.10594 7.03982 4.06268C7.12764 4.01941 7.22689 3.99783 7.32726 4.00017C7.42764 4.00251 7.52548 4.0287 7.61063 4.076Z" fill="#4B5563"/>
</svg>
